<mxfile host="app.diagrams.net" modified="2023-09-27T10:04:06.079Z" agent="Mozilla/5.0 (Windows NT 10.0; Win64; x64) AppleWebKit/537.36 (KHTML, like Gecko) Chrome/117.0.0.0 Safari/537.36" etag="czDd9mU_V5xq7xFI_lnU" version="21.8.2" type="device">
  <diagram id="R2lEEEUBdFMjLlhIrx00" name="Page-1">
    <mxGraphModel dx="6230" dy="3200" grid="1" gridSize="10" guides="1" tooltips="1" connect="1" arrows="1" fold="1" page="1" pageScale="1" pageWidth="850" pageHeight="1100" math="0" shadow="0" extFonts="Permanent Marker^https://fonts.googleapis.com/css?family=Permanent+Marker">
      <root>
        <mxCell id="0" />
        <mxCell id="1" parent="0" />
        <mxCell id="HTWprI1YvL_pcX_ykUgZ-6" style="edgeStyle=orthogonalEdgeStyle;rounded=0;orthogonalLoop=1;jettySize=auto;html=1;exitX=0.5;exitY=0;exitDx=0;exitDy=0;" parent="1" source="HTWprI1YvL_pcX_ykUgZ-5" target="HTWprI1YvL_pcX_ykUgZ-4" edge="1">
          <mxGeometry relative="1" as="geometry" />
        </mxCell>
        <mxCell id="MOOeBxr5KmztlEnLFUnQ-163" style="edgeStyle=orthogonalEdgeStyle;rounded=0;orthogonalLoop=1;jettySize=auto;html=1;strokeWidth=7;" parent="1" source="HTWprI1YvL_pcX_ykUgZ-2" edge="1">
          <mxGeometry relative="1" as="geometry">
            <mxPoint x="550" y="435" as="targetPoint" />
          </mxGeometry>
        </mxCell>
        <mxCell id="HTWprI1YvL_pcX_ykUgZ-2" value="" style="rounded=0;whiteSpace=wrap;html=1;strokeWidth=2;fillColor=#F2F4FC;strokeColor=#6c8ebf;" parent="1" vertex="1">
          <mxGeometry x="-300" y="180" width="650" height="510" as="geometry" />
        </mxCell>
        <mxCell id="HTWprI1YvL_pcX_ykUgZ-1" value="&lt;h1 style=&quot;font-size: 40px;&quot;&gt;&lt;font style=&quot;font-size: 40px;&quot;&gt;usrinfo Staging -&amp;nbsp;&lt;/font&gt;MySQL&lt;/h1&gt;" style="text;html=1;strokeColor=none;fillColor=none;spacing=5;spacingTop=-20;whiteSpace=wrap;overflow=hidden;rounded=0;" parent="1" vertex="1">
          <mxGeometry x="-305" y="110" width="660" height="77" as="geometry" />
        </mxCell>
        <mxCell id="HTWprI1YvL_pcX_ykUgZ-3" value="&lt;h1&gt;&lt;font style=&quot;font-size: 35px;&quot;&gt;usrinfo&lt;/font&gt;&lt;/h1&gt;" style="text;html=1;strokeColor=none;fillColor=none;spacing=5;spacingTop=-20;whiteSpace=wrap;overflow=hidden;rounded=0;" parent="1" vertex="1">
          <mxGeometry x="-295" y="180" width="354" height="70" as="geometry" />
        </mxCell>
        <mxCell id="HTWprI1YvL_pcX_ykUgZ-4" value="chall_usrinfo" style="swimlane;childLayout=stackLayout;horizontal=1;startSize=30;horizontalStack=0;rounded=1;fontSize=14;fontStyle=0;strokeWidth=2;resizeParent=0;resizeLast=1;shadow=0;dashed=0;align=center;arcSize=4;whiteSpace=wrap;html=1;" parent="1" vertex="1">
          <mxGeometry x="-245" y="314" width="160" height="80" as="geometry" />
        </mxCell>
        <mxCell id="HTWprI1YvL_pcX_ykUgZ-5" value="summnorName varchar(255)&lt;br style=&quot;border-color: var(--border-color); padding: 0px; margin: 0px;&quot;&gt;puuid varchar(255)" style="align=left;strokeColor=none;fillColor=none;spacingLeft=4;fontSize=12;verticalAlign=top;resizable=0;rotatable=0;part=1;html=1;" parent="HTWprI1YvL_pcX_ykUgZ-4" vertex="1">
          <mxGeometry y="30" width="160" height="50" as="geometry" />
        </mxCell>
        <mxCell id="HTWprI1YvL_pcX_ykUgZ-7" value="grand_usrinfo" style="swimlane;childLayout=stackLayout;horizontal=1;startSize=30;horizontalStack=0;rounded=1;fontSize=14;fontStyle=0;strokeWidth=2;resizeParent=0;resizeLast=1;shadow=0;dashed=0;align=center;arcSize=4;whiteSpace=wrap;html=1;" parent="1" vertex="1">
          <mxGeometry x="-245" y="404" width="160" height="80" as="geometry" />
        </mxCell>
        <mxCell id="HTWprI1YvL_pcX_ykUgZ-8" value="summnorName varchar(255)&lt;br style=&quot;border-color: var(--border-color); padding: 0px; margin: 0px;&quot;&gt;puuid varchar(255)" style="align=left;strokeColor=none;fillColor=none;spacingLeft=4;fontSize=12;verticalAlign=top;resizable=0;rotatable=0;part=1;html=1;" parent="HTWprI1YvL_pcX_ykUgZ-7" vertex="1">
          <mxGeometry y="30" width="160" height="50" as="geometry" />
        </mxCell>
        <mxCell id="HTWprI1YvL_pcX_ykUgZ-9" value="mast_usrinfo" style="swimlane;childLayout=stackLayout;horizontal=1;startSize=30;horizontalStack=0;rounded=1;fontSize=14;fontStyle=0;strokeWidth=2;resizeParent=0;resizeLast=1;shadow=0;dashed=0;align=center;arcSize=4;whiteSpace=wrap;html=1;" parent="1" vertex="1">
          <mxGeometry x="-245" y="494" width="160" height="80" as="geometry" />
        </mxCell>
        <mxCell id="HTWprI1YvL_pcX_ykUgZ-10" value="summnorName varchar(255)&lt;br style=&quot;border-color: var(--border-color); padding: 0px; margin: 0px;&quot;&gt;puuid varchar(255)" style="align=left;strokeColor=none;fillColor=none;spacingLeft=4;fontSize=12;verticalAlign=top;resizable=0;rotatable=0;part=1;html=1;" parent="HTWprI1YvL_pcX_ykUgZ-9" vertex="1">
          <mxGeometry y="30" width="160" height="50" as="geometry" />
        </mxCell>
        <mxCell id="HTWprI1YvL_pcX_ykUgZ-11" value="dia_usrinfo" style="swimlane;childLayout=stackLayout;horizontal=1;startSize=30;horizontalStack=0;rounded=1;fontSize=14;fontStyle=0;strokeWidth=2;resizeParent=0;resizeLast=1;shadow=0;dashed=0;align=center;arcSize=4;whiteSpace=wrap;html=1;" parent="1" vertex="1">
          <mxGeometry x="-55" y="314" width="160" height="80" as="geometry" />
        </mxCell>
        <mxCell id="HTWprI1YvL_pcX_ykUgZ-12" value="summnorName varchar(255)&lt;br style=&quot;border-color: var(--border-color); padding: 0px; margin: 0px;&quot;&gt;puuid varchar(255)" style="align=left;strokeColor=none;fillColor=none;spacingLeft=4;fontSize=12;verticalAlign=top;resizable=0;rotatable=0;part=1;html=1;" parent="HTWprI1YvL_pcX_ykUgZ-11" vertex="1">
          <mxGeometry y="30" width="160" height="50" as="geometry" />
        </mxCell>
        <mxCell id="HTWprI1YvL_pcX_ykUgZ-13" value="em_usrinfo" style="swimlane;childLayout=stackLayout;horizontal=1;startSize=30;horizontalStack=0;rounded=1;fontSize=14;fontStyle=0;strokeWidth=2;resizeParent=0;resizeLast=1;shadow=0;dashed=0;align=center;arcSize=4;whiteSpace=wrap;html=1;" parent="1" vertex="1">
          <mxGeometry x="-55" y="404" width="160" height="80" as="geometry" />
        </mxCell>
        <mxCell id="HTWprI1YvL_pcX_ykUgZ-14" value="summnorName varchar(255)&lt;br style=&quot;border-color: var(--border-color); padding: 0px; margin: 0px;&quot;&gt;puuid varchar(255)" style="align=left;strokeColor=none;fillColor=none;spacingLeft=4;fontSize=12;verticalAlign=top;resizable=0;rotatable=0;part=1;html=1;" parent="HTWprI1YvL_pcX_ykUgZ-13" vertex="1">
          <mxGeometry y="30" width="160" height="50" as="geometry" />
        </mxCell>
        <mxCell id="HTWprI1YvL_pcX_ykUgZ-15" value="pla_usrinfo" style="swimlane;childLayout=stackLayout;horizontal=1;startSize=30;horizontalStack=0;rounded=1;fontSize=14;fontStyle=0;strokeWidth=2;resizeParent=0;resizeLast=1;shadow=0;dashed=0;align=center;arcSize=4;whiteSpace=wrap;html=1;" parent="1" vertex="1">
          <mxGeometry x="-55" y="494" width="160" height="80" as="geometry" />
        </mxCell>
        <mxCell id="HTWprI1YvL_pcX_ykUgZ-16" value="summnorName varchar(255)&lt;br style=&quot;border-color: var(--border-color); padding: 0px; margin: 0px;&quot;&gt;puuid varchar(255)" style="align=left;strokeColor=none;fillColor=none;spacingLeft=4;fontSize=12;verticalAlign=top;resizable=0;rotatable=0;part=1;html=1;" parent="HTWprI1YvL_pcX_ykUgZ-15" vertex="1">
          <mxGeometry y="30" width="160" height="50" as="geometry" />
        </mxCell>
        <mxCell id="HTWprI1YvL_pcX_ykUgZ-17" value="gold_usrinfo" style="swimlane;childLayout=stackLayout;horizontal=1;startSize=30;horizontalStack=0;rounded=1;fontSize=14;fontStyle=0;strokeWidth=2;resizeParent=0;resizeLast=1;shadow=0;dashed=0;align=center;arcSize=4;whiteSpace=wrap;html=1;" parent="1" vertex="1">
          <mxGeometry x="135" y="264" width="160" height="80" as="geometry" />
        </mxCell>
        <mxCell id="HTWprI1YvL_pcX_ykUgZ-18" value="summnorName varchar(255)&lt;br style=&quot;border-color: var(--border-color); padding: 0px; margin: 0px;&quot;&gt;puuid varchar(255)" style="align=left;strokeColor=none;fillColor=none;spacingLeft=4;fontSize=12;verticalAlign=top;resizable=0;rotatable=0;part=1;html=1;" parent="HTWprI1YvL_pcX_ykUgZ-17" vertex="1">
          <mxGeometry y="30" width="160" height="50" as="geometry" />
        </mxCell>
        <mxCell id="HTWprI1YvL_pcX_ykUgZ-19" value="sil_usrinfo" style="swimlane;childLayout=stackLayout;horizontal=1;startSize=30;horizontalStack=0;rounded=1;fontSize=14;fontStyle=0;strokeWidth=2;resizeParent=0;resizeLast=1;shadow=0;dashed=0;align=center;arcSize=4;whiteSpace=wrap;html=1;" parent="1" vertex="1">
          <mxGeometry x="135" y="354" width="160" height="80" as="geometry" />
        </mxCell>
        <mxCell id="HTWprI1YvL_pcX_ykUgZ-20" value="summnorName varchar(255)&lt;br style=&quot;border-color: var(--border-color); padding: 0px; margin: 0px;&quot;&gt;puuid varchar(255)" style="align=left;strokeColor=none;fillColor=none;spacingLeft=4;fontSize=12;verticalAlign=top;resizable=0;rotatable=0;part=1;html=1;" parent="HTWprI1YvL_pcX_ykUgZ-19" vertex="1">
          <mxGeometry y="30" width="160" height="50" as="geometry" />
        </mxCell>
        <mxCell id="HTWprI1YvL_pcX_ykUgZ-21" value="iron_usrinfo" style="swimlane;childLayout=stackLayout;horizontal=1;startSize=30;horizontalStack=0;rounded=1;fontSize=14;fontStyle=0;strokeWidth=2;resizeParent=0;resizeLast=1;shadow=0;dashed=0;align=center;arcSize=4;whiteSpace=wrap;html=1;" parent="1" vertex="1">
          <mxGeometry x="135" y="444" width="160" height="80" as="geometry" />
        </mxCell>
        <mxCell id="HTWprI1YvL_pcX_ykUgZ-22" value="summnorName varchar(255)&lt;br style=&quot;border-color: var(--border-color); padding: 0px; margin: 0px;&quot;&gt;puuid varchar(255)" style="align=left;strokeColor=none;fillColor=none;spacingLeft=4;fontSize=12;verticalAlign=top;resizable=0;rotatable=0;part=1;html=1;" parent="HTWprI1YvL_pcX_ykUgZ-21" vertex="1">
          <mxGeometry y="30" width="160" height="50" as="geometry" />
        </mxCell>
        <mxCell id="HTWprI1YvL_pcX_ykUgZ-23" value="bro_usrinfo" style="swimlane;childLayout=stackLayout;horizontal=1;startSize=30;horizontalStack=0;rounded=1;fontSize=14;fontStyle=0;strokeWidth=2;resizeParent=0;resizeLast=1;shadow=0;dashed=0;align=center;arcSize=4;whiteSpace=wrap;html=1;" parent="1" vertex="1">
          <mxGeometry x="135" y="534" width="160" height="80" as="geometry" />
        </mxCell>
        <mxCell id="HTWprI1YvL_pcX_ykUgZ-24" value="summnorName varchar(255)&lt;br style=&quot;border-color: var(--border-color); padding: 0px; margin: 0px;&quot;&gt;puuid varchar(255)" style="align=left;strokeColor=none;fillColor=none;spacingLeft=4;fontSize=12;verticalAlign=top;resizable=0;rotatable=0;part=1;html=1;" parent="HTWprI1YvL_pcX_ykUgZ-23" vertex="1">
          <mxGeometry y="30" width="160" height="50" as="geometry" />
        </mxCell>
        <mxCell id="HTWprI1YvL_pcX_ykUgZ-25" value="" style="rounded=0;whiteSpace=wrap;html=1;strokeWidth=2;fillColor=#FAF6F5;strokeColor=#FF6666;" parent="1" vertex="1">
          <mxGeometry x="555" y="260" width="650" height="375" as="geometry" />
        </mxCell>
        <mxCell id="HTWprI1YvL_pcX_ykUgZ-26" value="&lt;h1&gt;&lt;font style=&quot;font-size: 40px;&quot;&gt;matchID Staging&lt;/font&gt;&lt;/h1&gt;" style="text;html=1;strokeColor=none;fillColor=none;spacing=5;spacingTop=-20;whiteSpace=wrap;overflow=hidden;rounded=0;" parent="1" vertex="1">
          <mxGeometry x="555" y="195" width="410" height="80" as="geometry" />
        </mxCell>
        <mxCell id="HTWprI1YvL_pcX_ykUgZ-27" value="&lt;h1&gt;&lt;font style=&quot;font-size: 35px;&quot;&gt;mat_info(DB)&lt;/font&gt;&lt;/h1&gt;" style="text;html=1;strokeColor=none;fillColor=none;spacing=5;spacingTop=-20;whiteSpace=wrap;overflow=hidden;rounded=0;" parent="1" vertex="1">
          <mxGeometry x="568" y="264" width="422" height="60" as="geometry" />
        </mxCell>
        <mxCell id="MOOeBxr5KmztlEnLFUnQ-167" style="edgeStyle=orthogonalEdgeStyle;rounded=0;orthogonalLoop=1;jettySize=auto;html=1;strokeWidth=7;" parent="1" source="HTWprI1YvL_pcX_ykUgZ-71" edge="1">
          <mxGeometry relative="1" as="geometry">
            <mxPoint x="1810" y="1330" as="targetPoint" />
          </mxGeometry>
        </mxCell>
        <mxCell id="HTWprI1YvL_pcX_ykUgZ-71" value="" style="rounded=0;whiteSpace=wrap;html=1;strokeWidth=2;fillColor=#F2F4FC;strokeColor=#10739e;" parent="1" vertex="1">
          <mxGeometry x="-165" y="874" width="1505" height="1156" as="geometry" />
        </mxCell>
        <mxCell id="HTWprI1YvL_pcX_ykUgZ-72" value="&lt;h1&gt;&lt;font style=&quot;font-size: 35px;&quot;&gt;gameinfo(DB Name)&lt;/font&gt;&lt;/h1&gt;" style="text;html=1;strokeColor=none;fillColor=none;spacing=5;spacingTop=-20;whiteSpace=wrap;overflow=hidden;rounded=0;" parent="1" vertex="1">
          <mxGeometry x="-152.5" y="883" width="345" height="40" as="geometry" />
        </mxCell>
        <mxCell id="HTWprI1YvL_pcX_ykUgZ-99" value="&lt;h1&gt;&lt;font style=&quot;font-size: 60px;&quot;&gt;Data Warehouse(MySQL)&lt;/font&gt;&lt;/h1&gt;" style="text;html=1;strokeColor=none;fillColor=none;spacing=5;spacingTop=-20;whiteSpace=wrap;overflow=hidden;rounded=0;" parent="1" vertex="1">
          <mxGeometry x="-150" y="770" width="793" height="90" as="geometry" />
        </mxCell>
        <mxCell id="HTWprI1YvL_pcX_ykUgZ-126" value="" style="rounded=0;whiteSpace=wrap;html=1;strokeWidth=2;fillColor=#F2F4FC;" parent="1" vertex="1">
          <mxGeometry x="1820" y="1010" width="1190" height="670" as="geometry" />
        </mxCell>
        <mxCell id="HTWprI1YvL_pcX_ykUgZ-127" value="&lt;h1&gt;&lt;font style=&quot;font-size: 60px;&quot;&gt;Data Mart&lt;/font&gt;&lt;/h1&gt;" style="text;html=1;strokeColor=none;fillColor=none;spacing=5;spacingTop=-20;whiteSpace=wrap;overflow=hidden;rounded=0;" parent="1" vertex="1">
          <mxGeometry x="1820" y="910" width="503" height="90" as="geometry" />
        </mxCell>
        <mxCell id="N5WtjUhzOLgPq8z7NYSw-3" value="usr_login" style="swimlane;childLayout=stackLayout;horizontal=1;startSize=30;horizontalStack=0;rounded=1;fontSize=14;fontStyle=0;strokeWidth=2;resizeParent=0;resizeLast=1;shadow=0;dashed=0;align=center;arcSize=4;whiteSpace=wrap;html=1;" parent="1" vertex="1">
          <mxGeometry x="1100" y="1590" width="180" height="200" as="geometry" />
        </mxCell>
        <mxCell id="N5WtjUhzOLgPq8z7NYSw-4" value="col1&lt;br style=&quot;border-color: var(--border-color); padding: 0px; margin: 0px;&quot;&gt;co2&lt;br&gt;&lt;br&gt;" style="align=left;strokeColor=none;fillColor=none;spacingLeft=4;fontSize=12;verticalAlign=top;resizable=0;rotatable=0;part=1;html=1;" parent="N5WtjUhzOLgPq8z7NYSw-3" vertex="1">
          <mxGeometry y="30" width="180" height="170" as="geometry" />
        </mxCell>
        <mxCell id="rLJDlsq2ctv8KvqcAvXV-2" value="" style="rounded=1;whiteSpace=wrap;html=1;strokeWidth=2;strokeColor=#7D7D7D;" parent="1" vertex="1">
          <mxGeometry x="597.5" y="333" width="542.5" height="252" as="geometry" />
        </mxCell>
        <mxCell id="rLJDlsq2ctv8KvqcAvXV-3" value="" style="rounded=1;whiteSpace=wrap;html=1;" parent="1" vertex="1">
          <mxGeometry x="713" y="392" width="97.5" height="52" as="geometry" />
        </mxCell>
        <mxCell id="rLJDlsq2ctv8KvqcAvXV-4" value="" style="rounded=1;whiteSpace=wrap;html=1;" parent="1" vertex="1">
          <mxGeometry x="820.5" y="392" width="97.5" height="52" as="geometry" />
        </mxCell>
        <mxCell id="rLJDlsq2ctv8KvqcAvXV-5" value="" style="rounded=1;whiteSpace=wrap;html=1;" parent="1" vertex="1">
          <mxGeometry x="926.5" y="392" width="97.5" height="52" as="geometry" />
        </mxCell>
        <mxCell id="rLJDlsq2ctv8KvqcAvXV-6" value="" style="rounded=1;whiteSpace=wrap;html=1;" parent="1" vertex="1">
          <mxGeometry x="785" y="511" width="97.5" height="52" as="geometry" />
        </mxCell>
        <mxCell id="rLJDlsq2ctv8KvqcAvXV-7" value="" style="rounded=1;whiteSpace=wrap;html=1;" parent="1" vertex="1">
          <mxGeometry x="713" y="452" width="97.5" height="52" as="geometry" />
        </mxCell>
        <mxCell id="rLJDlsq2ctv8KvqcAvXV-8" value="" style="rounded=1;whiteSpace=wrap;html=1;" parent="1" vertex="1">
          <mxGeometry x="820.75" y="450" width="97.5" height="52" as="geometry" />
        </mxCell>
        <mxCell id="rLJDlsq2ctv8KvqcAvXV-9" value="" style="rounded=1;whiteSpace=wrap;html=1;" parent="1" vertex="1">
          <mxGeometry x="926.5" y="450" width="97.5" height="52" as="geometry" />
        </mxCell>
        <mxCell id="rLJDlsq2ctv8KvqcAvXV-11" value="" style="rounded=1;whiteSpace=wrap;html=1;" parent="1" vertex="1">
          <mxGeometry x="891" y="511" width="97.5" height="52" as="geometry" />
        </mxCell>
        <mxCell id="rLJDlsq2ctv8KvqcAvXV-12" value="" style="rounded=1;whiteSpace=wrap;html=1;" parent="1" vertex="1">
          <mxGeometry x="997.5" y="511" width="97.5" height="52" as="geometry" />
        </mxCell>
        <mxCell id="rLJDlsq2ctv8KvqcAvXV-14" value="" style="rounded=1;whiteSpace=wrap;html=1;" parent="1" vertex="1">
          <mxGeometry x="680" y="511" width="97.5" height="52" as="geometry" />
        </mxCell>
        <mxCell id="rLJDlsq2ctv8KvqcAvXV-15" value="&lt;h1&gt;&lt;font style=&quot;font-size: 23px;&quot;&gt;MatchID(collection)&lt;/font&gt;&lt;/h1&gt;" style="text;html=1;strokeColor=none;fillColor=none;spacing=5;spacingTop=-20;whiteSpace=wrap;overflow=hidden;rounded=0;" parent="1" vertex="1">
          <mxGeometry x="630" y="333" width="422" height="60" as="geometry" />
        </mxCell>
        <mxCell id="rLJDlsq2ctv8KvqcAvXV-16" value="&lt;h1&gt;&lt;span style=&quot;font-weight: 400;&quot;&gt;&lt;font style=&quot;font-size: 17px;&quot;&gt;chall_mat&lt;/font&gt;&lt;/span&gt;&lt;/h1&gt;" style="text;html=1;strokeColor=none;fillColor=none;spacing=5;spacingTop=-20;whiteSpace=wrap;overflow=hidden;rounded=0;" parent="1" vertex="1">
          <mxGeometry x="720" y="397" width="80" height="30" as="geometry" />
        </mxCell>
        <mxCell id="rLJDlsq2ctv8KvqcAvXV-17" value="&lt;span style=&quot;font-size: 17px;&quot;&gt;grand_mat&lt;/span&gt;" style="text;html=1;strokeColor=none;fillColor=none;spacing=5;spacingTop=-20;whiteSpace=wrap;overflow=hidden;rounded=0;" parent="1" vertex="1">
          <mxGeometry x="824.5" y="419" width="100.5" height="30" as="geometry" />
        </mxCell>
        <mxCell id="rLJDlsq2ctv8KvqcAvXV-19" value="&lt;span style=&quot;font-size: 17px;&quot;&gt;mast_mat&lt;/span&gt;" style="text;html=1;strokeColor=none;fillColor=none;spacing=5;spacingTop=-20;whiteSpace=wrap;overflow=hidden;rounded=0;" parent="1" vertex="1">
          <mxGeometry x="932" y="418" width="100.5" height="30" as="geometry" />
        </mxCell>
        <mxCell id="rLJDlsq2ctv8KvqcAvXV-20" value="&lt;span style=&quot;font-size: 17px;&quot;&gt;dia_mat&lt;/span&gt;" style="text;html=1;strokeColor=none;fillColor=none;spacing=5;spacingTop=-20;whiteSpace=wrap;overflow=hidden;rounded=0;" parent="1" vertex="1">
          <mxGeometry x="721.75" y="476" width="80" height="10" as="geometry" />
        </mxCell>
        <mxCell id="rLJDlsq2ctv8KvqcAvXV-21" value="&lt;span style=&quot;font-size: 17px;&quot;&gt;em_mat&lt;/span&gt;" style="text;html=1;strokeColor=none;fillColor=none;spacing=5;spacingTop=-20;whiteSpace=wrap;overflow=hidden;rounded=0;" parent="1" vertex="1">
          <mxGeometry x="829.5" y="475" width="80" height="10" as="geometry" />
        </mxCell>
        <mxCell id="rLJDlsq2ctv8KvqcAvXV-22" value="&lt;span style=&quot;font-size: 17px;&quot;&gt;pla_mat&lt;/span&gt;" style="text;html=1;strokeColor=none;fillColor=none;spacing=5;spacingTop=-20;whiteSpace=wrap;overflow=hidden;rounded=0;" parent="1" vertex="1">
          <mxGeometry x="935.25" y="475" width="80" height="10" as="geometry" />
        </mxCell>
        <mxCell id="rLJDlsq2ctv8KvqcAvXV-23" value="&lt;span style=&quot;font-size: 17px;&quot;&gt;gold_mat&lt;/span&gt;" style="text;html=1;strokeColor=none;fillColor=none;spacing=5;spacingTop=-20;whiteSpace=wrap;overflow=hidden;rounded=0;" parent="1" vertex="1">
          <mxGeometry x="688.75" y="534" width="80" height="22" as="geometry" />
        </mxCell>
        <mxCell id="rLJDlsq2ctv8KvqcAvXV-24" value="&lt;span style=&quot;font-size: 17px;&quot;&gt;sil_mat&lt;/span&gt;" style="text;html=1;strokeColor=none;fillColor=none;spacing=5;spacingTop=-20;whiteSpace=wrap;overflow=hidden;rounded=0;" parent="1" vertex="1">
          <mxGeometry x="796.75" y="536" width="80" height="10" as="geometry" />
        </mxCell>
        <mxCell id="rLJDlsq2ctv8KvqcAvXV-25" value="&lt;span style=&quot;font-size: 17px;&quot;&gt;bro_mat&lt;/span&gt;" style="text;html=1;strokeColor=none;fillColor=none;spacing=5;spacingTop=-20;whiteSpace=wrap;overflow=hidden;rounded=0;" parent="1" vertex="1">
          <mxGeometry x="900.75" y="537" width="80" height="10" as="geometry" />
        </mxCell>
        <mxCell id="rLJDlsq2ctv8KvqcAvXV-26" value="&lt;span style=&quot;font-size: 17px;&quot;&gt;iron_mat&lt;/span&gt;" style="text;html=1;strokeColor=none;fillColor=none;spacing=5;spacingTop=-20;whiteSpace=wrap;overflow=hidden;rounded=0;" parent="1" vertex="1">
          <mxGeometry x="1009" y="536" width="80" height="10" as="geometry" />
        </mxCell>
        <mxCell id="MOOeBxr5KmztlEnLFUnQ-165" style="edgeStyle=orthogonalEdgeStyle;rounded=0;orthogonalLoop=1;jettySize=auto;html=1;exitX=0.5;exitY=1;exitDx=0;exitDy=0;strokeWidth=7;" parent="1" source="rLJDlsq2ctv8KvqcAvXV-27" target="HTWprI1YvL_pcX_ykUgZ-71" edge="1">
          <mxGeometry relative="1" as="geometry">
            <Array as="points">
              <mxPoint x="1860" y="759" />
              <mxPoint x="820" y="759" />
            </Array>
          </mxGeometry>
        </mxCell>
        <mxCell id="rLJDlsq2ctv8KvqcAvXV-27" value="" style="rounded=0;whiteSpace=wrap;html=1;strokeWidth=2;fillColor=#FAF6F5;strokeColor=#FF9999;" parent="1" vertex="1">
          <mxGeometry x="1390" y="166" width="940" height="478" as="geometry" />
        </mxCell>
        <mxCell id="rLJDlsq2ctv8KvqcAvXV-29" value="&lt;h1&gt;&lt;font style=&quot;font-size: 40px;&quot;&gt;matchID Staging&lt;/font&gt;&lt;/h1&gt;" style="text;html=1;strokeColor=none;fillColor=none;spacing=5;spacingTop=-20;whiteSpace=wrap;overflow=hidden;rounded=0;" parent="1" vertex="1">
          <mxGeometry x="1380" y="100" width="410" height="80" as="geometry" />
        </mxCell>
        <mxCell id="rLJDlsq2ctv8KvqcAvXV-30" value="" style="rounded=1;whiteSpace=wrap;html=1;strokeWidth=2;strokeColor=#7D7D7D;" parent="1" vertex="1">
          <mxGeometry x="1550" y="264" width="180" height="98" as="geometry" />
        </mxCell>
        <mxCell id="rLJDlsq2ctv8KvqcAvXV-31" value="&lt;h1&gt;&lt;font style=&quot;font-size: 35px;&quot;&gt;raw_info(DB)&lt;/font&gt;&lt;/h1&gt;" style="text;html=1;strokeColor=none;fillColor=none;spacing=5;spacingTop=-20;whiteSpace=wrap;overflow=hidden;rounded=0;" parent="1" vertex="1">
          <mxGeometry x="1410" y="180" width="422" height="60" as="geometry" />
        </mxCell>
        <mxCell id="rLJDlsq2ctv8KvqcAvXV-32" value="" style="rounded=1;whiteSpace=wrap;html=1;strokeWidth=2;strokeColor=#7D7D7D;" parent="1" vertex="1">
          <mxGeometry x="1770" y="262" width="180" height="100" as="geometry" />
        </mxCell>
        <mxCell id="rLJDlsq2ctv8KvqcAvXV-33" value="" style="rounded=1;whiteSpace=wrap;html=1;strokeWidth=2;strokeColor=#7D7D7D;" parent="1" vertex="1">
          <mxGeometry x="1972" y="262" width="180" height="100" as="geometry" />
        </mxCell>
        <mxCell id="rLJDlsq2ctv8KvqcAvXV-34" value="" style="rounded=1;whiteSpace=wrap;html=1;strokeWidth=2;strokeColor=#7D7D7D;" parent="1" vertex="1">
          <mxGeometry x="2090" y="498" width="180" height="100" as="geometry" />
        </mxCell>
        <mxCell id="rLJDlsq2ctv8KvqcAvXV-35" value="" style="rounded=1;whiteSpace=wrap;html=1;strokeWidth=2;strokeColor=#7D7D7D;" parent="1" vertex="1">
          <mxGeometry x="1550" y="383" width="180" height="100" as="geometry" />
        </mxCell>
        <mxCell id="rLJDlsq2ctv8KvqcAvXV-36" value="" style="rounded=1;whiteSpace=wrap;html=1;strokeWidth=2;strokeColor=#7D7D7D;" parent="1" vertex="1">
          <mxGeometry x="1490" y="503" width="180" height="100" as="geometry" />
        </mxCell>
        <mxCell id="rLJDlsq2ctv8KvqcAvXV-37" value="" style="rounded=1;whiteSpace=wrap;html=1;strokeWidth=2;strokeColor=#7D7D7D;" parent="1" vertex="1">
          <mxGeometry x="1770" y="385" width="180" height="100" as="geometry" />
        </mxCell>
        <mxCell id="rLJDlsq2ctv8KvqcAvXV-38" value="" style="rounded=1;whiteSpace=wrap;html=1;strokeWidth=2;strokeColor=#7D7D7D;" parent="1" vertex="1">
          <mxGeometry x="1690" y="503" width="180" height="98" as="geometry" />
        </mxCell>
        <mxCell id="rLJDlsq2ctv8KvqcAvXV-39" value="" style="rounded=1;whiteSpace=wrap;html=1;strokeWidth=2;strokeColor=#7D7D7D;" parent="1" vertex="1">
          <mxGeometry x="1990" y="384" width="180" height="100" as="geometry" />
        </mxCell>
        <mxCell id="rLJDlsq2ctv8KvqcAvXV-40" value="" style="rounded=1;whiteSpace=wrap;html=1;strokeWidth=2;strokeColor=#7D7D7D;" parent="1" vertex="1">
          <mxGeometry x="1890" y="501" width="180" height="98" as="geometry" />
        </mxCell>
        <mxCell id="rLJDlsq2ctv8KvqcAvXV-45" value="wiget1" style="swimlane;childLayout=stackLayout;horizontal=1;startSize=30;horizontalStack=0;rounded=1;fontSize=14;fontStyle=0;strokeWidth=2;resizeParent=0;resizeLast=1;shadow=0;dashed=0;align=center;arcSize=4;whiteSpace=wrap;html=1;" parent="1" vertex="1">
          <mxGeometry x="720" y="1590" width="180" height="200" as="geometry" />
        </mxCell>
        <mxCell id="rLJDlsq2ctv8KvqcAvXV-46" value="col1&lt;br style=&quot;border-color: var(--border-color); padding: 0px; margin: 0px;&quot;&gt;co2&lt;br&gt;wiget1&lt;br&gt;wiget2" style="align=left;strokeColor=none;fillColor=none;spacingLeft=4;fontSize=12;verticalAlign=top;resizable=0;rotatable=0;part=1;html=1;" parent="rLJDlsq2ctv8KvqcAvXV-45" vertex="1">
          <mxGeometry y="30" width="180" height="170" as="geometry" />
        </mxCell>
        <mxCell id="rLJDlsq2ctv8KvqcAvXV-47" value="wiget1" style="swimlane;childLayout=stackLayout;horizontal=1;startSize=30;horizontalStack=0;rounded=1;fontSize=14;fontStyle=0;strokeWidth=2;resizeParent=0;resizeLast=1;shadow=0;dashed=0;align=center;arcSize=4;whiteSpace=wrap;html=1;" parent="1" vertex="1">
          <mxGeometry x="910" y="1590" width="180" height="200" as="geometry" />
        </mxCell>
        <mxCell id="rLJDlsq2ctv8KvqcAvXV-48" value="col1&lt;br style=&quot;border-color: var(--border-color); padding: 0px; margin: 0px;&quot;&gt;co2&lt;br&gt;wiget1&lt;br&gt;wiget2" style="align=left;strokeColor=none;fillColor=none;spacingLeft=4;fontSize=12;verticalAlign=top;resizable=0;rotatable=0;part=1;html=1;" parent="rLJDlsq2ctv8KvqcAvXV-47" vertex="1">
          <mxGeometry y="30" width="180" height="170" as="geometry" />
        </mxCell>
        <mxCell id="rLJDlsq2ctv8KvqcAvXV-49" value="chall_cham" style="swimlane;childLayout=stackLayout;horizontal=1;startSize=30;horizontalStack=0;rounded=1;fontSize=14;fontStyle=0;strokeWidth=2;resizeParent=0;resizeLast=1;shadow=0;dashed=0;align=center;arcSize=4;whiteSpace=wrap;html=1;" parent="1" vertex="1">
          <mxGeometry x="1990" y="1093" width="250" height="150" as="geometry" />
        </mxCell>
        <mxCell id="rLJDlsq2ctv8KvqcAvXV-50" value="&lt;div&gt;championName varchar(255) NOT NULL&lt;/div&gt;&lt;div&gt;&lt;span style=&quot;background-color: initial;&quot;&gt;championId varchar(255) NOT NULL&lt;/span&gt;&lt;/div&gt;&lt;div&gt;&lt;span style=&quot;background-color: initial;&quot;&gt;teamPosition varchar(255)&lt;/span&gt;&lt;/div&gt;&lt;div&gt;&lt;span style=&quot;background-color: initial;&quot;&gt;total_cnt int(10)&lt;/span&gt;&lt;/div&gt;&lt;div&gt;&lt;span style=&quot;background-color: initial;&quot;&gt;win_cnt float(10)&lt;/span&gt;&lt;/div&gt;&lt;div&gt;&lt;span style=&quot;background-color: initial;&quot;&gt;ban_cnt float(10)&lt;/span&gt;&lt;/div&gt;&lt;div&gt;&lt;span style=&quot;background-color: initial;&quot;&gt;pick_cnt float(10)&lt;/span&gt;&lt;/div&gt;" style="align=left;strokeColor=none;fillColor=none;spacingLeft=4;fontSize=12;verticalAlign=top;resizable=0;rotatable=0;part=1;html=1;" parent="rLJDlsq2ctv8KvqcAvXV-49" vertex="1">
          <mxGeometry y="30" width="250" height="120" as="geometry" />
        </mxCell>
        <mxCell id="rLJDlsq2ctv8KvqcAvXV-106" value="&lt;h1 style=&quot;border-color: var(--border-color);&quot;&gt;&lt;font style=&quot;border-color: var(--border-color); font-size: 20px;&quot;&gt;chall_total&lt;/font&gt;&lt;/h1&gt;" style="text;html=1;strokeColor=none;fillColor=none;spacing=5;spacingTop=-20;whiteSpace=wrap;overflow=hidden;rounded=0;" parent="1" vertex="1">
          <mxGeometry x="1583" y="260" width="107" height="41" as="geometry" />
        </mxCell>
        <mxCell id="fntE8XpGdEE-Oy62-avi-2" value="&lt;h1&gt;&lt;span style=&quot;font-weight: 400;&quot;&gt;&lt;font style=&quot;font-size: 20px;&quot;&gt;mast_total&lt;/font&gt;&lt;/span&gt;&lt;/h1&gt;" style="text;html=1;strokeColor=none;fillColor=none;spacing=5;spacingTop=-20;whiteSpace=wrap;overflow=hidden;rounded=0;" parent="1" vertex="1">
          <mxGeometry x="2030.63" y="252" width="107" height="41" as="geometry" />
        </mxCell>
        <mxCell id="fntE8XpGdEE-Oy62-avi-3" value="&lt;h1&gt;&lt;span style=&quot;font-weight: 400;&quot;&gt;&lt;font style=&quot;font-size: 20px;&quot;&gt;dia_total&lt;/font&gt;&lt;/span&gt;&lt;/h1&gt;" style="text;html=1;strokeColor=none;fillColor=none;spacing=5;spacingTop=-20;whiteSpace=wrap;overflow=hidden;rounded=0;" parent="1" vertex="1">
          <mxGeometry x="1586.5" y="384.5" width="107" height="41" as="geometry" />
        </mxCell>
        <mxCell id="fntE8XpGdEE-Oy62-avi-4" value="&lt;h1&gt;&lt;span style=&quot;font-weight: 400;&quot;&gt;&lt;font style=&quot;font-size: 20px;&quot;&gt;em_total&lt;/font&gt;&lt;/span&gt;&lt;/h1&gt;" style="text;html=1;strokeColor=none;fillColor=none;spacing=5;spacingTop=-20;whiteSpace=wrap;overflow=hidden;rounded=0;" parent="1" vertex="1">
          <mxGeometry x="1810" y="383" width="107" height="41" as="geometry" />
        </mxCell>
        <mxCell id="fntE8XpGdEE-Oy62-avi-6" value="&lt;h1&gt;&lt;span style=&quot;font-weight: 400;&quot;&gt;&lt;font style=&quot;font-size: 20px;&quot;&gt;pla_total&lt;/font&gt;&lt;/span&gt;&lt;/h1&gt;" style="text;html=1;strokeColor=none;fillColor=none;spacing=5;spacingTop=-20;whiteSpace=wrap;overflow=hidden;rounded=0;" parent="1" vertex="1">
          <mxGeometry x="2020" y="377.5" width="107" height="41" as="geometry" />
        </mxCell>
        <mxCell id="fntE8XpGdEE-Oy62-avi-7" value="&lt;h1&gt;&lt;span style=&quot;font-weight: 400;&quot;&gt;&lt;font style=&quot;font-size: 20px;&quot;&gt;gold_total&lt;/font&gt;&lt;/span&gt;&lt;/h1&gt;" style="text;html=1;strokeColor=none;fillColor=none;spacing=5;spacingTop=-20;whiteSpace=wrap;overflow=hidden;rounded=0;" parent="1" vertex="1">
          <mxGeometry x="1506.5" y="499" width="107" height="41" as="geometry" />
        </mxCell>
        <mxCell id="fntE8XpGdEE-Oy62-avi-8" value="&lt;h1&gt;&lt;span style=&quot;font-weight: 400;&quot;&gt;&lt;font style=&quot;font-size: 20px;&quot;&gt;sil_total&lt;/font&gt;&lt;/span&gt;&lt;/h1&gt;" style="text;html=1;strokeColor=none;fillColor=none;spacing=5;spacingTop=-20;whiteSpace=wrap;overflow=hidden;rounded=0;" parent="1" vertex="1">
          <mxGeometry x="1723" y="499" width="107" height="41" as="geometry" />
        </mxCell>
        <mxCell id="fntE8XpGdEE-Oy62-avi-9" value="&lt;h1&gt;&lt;span style=&quot;font-weight: 400;&quot;&gt;&lt;font style=&quot;font-size: 20px;&quot;&gt;sil_total&lt;/font&gt;&lt;/span&gt;&lt;/h1&gt;" style="text;html=1;strokeColor=none;fillColor=none;spacing=5;spacingTop=-20;whiteSpace=wrap;overflow=hidden;rounded=0;" parent="1" vertex="1">
          <mxGeometry x="1945" y="503" width="107" height="41" as="geometry" />
        </mxCell>
        <mxCell id="fntE8XpGdEE-Oy62-avi-10" value="&lt;h1&gt;&lt;span style=&quot;font-weight: 400;&quot;&gt;&lt;font style=&quot;font-size: 20px;&quot;&gt;iron_total&lt;/font&gt;&lt;/span&gt;&lt;/h1&gt;" style="text;html=1;strokeColor=none;fillColor=none;spacing=5;spacingTop=-20;whiteSpace=wrap;overflow=hidden;rounded=0;" parent="1" vertex="1">
          <mxGeometry x="2150" y="499" width="107" height="41" as="geometry" />
        </mxCell>
        <mxCell id="MOOeBxr5KmztlEnLFUnQ-4" value="&lt;h1 style=&quot;border-color: var(--border-color);&quot;&gt;&lt;font style=&quot;border-color: var(--border-color); font-size: 20px;&quot;&gt;grand_total&lt;/font&gt;&lt;/h1&gt;" style="text;html=1;strokeColor=none;fillColor=none;spacing=5;spacingTop=-20;whiteSpace=wrap;overflow=hidden;rounded=0;" parent="1" vertex="1">
          <mxGeometry x="1796.75" y="256" width="133.5" height="41" as="geometry" />
        </mxCell>
        <mxCell id="MOOeBxr5KmztlEnLFUnQ-5" value="" style="rounded=1;whiteSpace=wrap;html=1;strokeWidth=2;strokeColor=#7D7D7D;" parent="1" vertex="1">
          <mxGeometry x="1560" y="299" width="70" height="31" as="geometry" />
        </mxCell>
        <mxCell id="MOOeBxr5KmztlEnLFUnQ-6" value="&lt;h1 style=&quot;border-color: var(--border-color);&quot;&gt;&lt;font style=&quot;border-color: var(--border-color); font-size: 7px;&quot;&gt;mat_info&lt;/font&gt;&lt;/h1&gt;" style="text;html=1;strokeColor=none;fillColor=none;spacing=5;spacingTop=-20;whiteSpace=wrap;overflow=hidden;rounded=0;" parent="1" vertex="1">
          <mxGeometry x="1568.5" y="284" width="50" height="30" as="geometry" />
        </mxCell>
        <mxCell id="MOOeBxr5KmztlEnLFUnQ-7" value="&lt;h1 style=&quot;border-color: var(--border-color);&quot;&gt;&lt;font style=&quot;border-color: var(--border-color); font-size: 7px;&quot;&gt;mat_timeline&lt;/font&gt;&lt;/h1&gt;" style="text;html=1;strokeColor=none;fillColor=none;spacing=5;spacingTop=-20;whiteSpace=wrap;overflow=hidden;rounded=0;" parent="1" vertex="1">
          <mxGeometry x="1558.5" y="295" width="70" height="34" as="geometry" />
        </mxCell>
        <mxCell id="MOOeBxr5KmztlEnLFUnQ-15" value="final_usrinfo" style="swimlane;childLayout=stackLayout;horizontal=1;startSize=30;horizontalStack=0;rounded=1;fontSize=14;fontStyle=0;strokeWidth=2;resizeParent=0;resizeLast=1;shadow=0;dashed=0;align=center;arcSize=4;whiteSpace=wrap;html=1;" parent="1" vertex="1">
          <mxGeometry x="-510" y="923" width="250" height="1020" as="geometry" />
        </mxCell>
        <mxCell id="MOOeBxr5KmztlEnLFUnQ-16" value="&lt;div style=&quot;border-color: var(--border-color); line-height: 130%;&quot;&gt;matchID&amp;nbsp;varchar(255) NOT NULL&lt;/div&gt;&lt;div style=&quot;border-color: var(--border-color); line-height: 130%;&quot;&gt;win bool,&lt;/div&gt;&lt;div style=&quot;border-color: var(--border-color); line-height: 130%;&quot;&gt;&lt;span style=&quot;border-color: var(--border-color); background-color: initial;&quot;&gt;gameMode varchar(255)&lt;/span&gt;&lt;/div&gt;&lt;div style=&quot;border-color: var(--border-color); line-height: 130%;&quot;&gt;&lt;span style=&quot;border-color: var(--border-color); background-color: initial;&quot;&gt;summonerName varchar(18) NOT NULL&lt;/span&gt;&lt;/div&gt;&lt;div style=&quot;border-color: var(--border-color); line-height: 130%;&quot;&gt;&lt;span style=&quot;border-color: var(--border-color); background-color: initial;&quot;&gt;puuid varchar(255) NOT NULL&lt;/span&gt;&lt;/div&gt;&lt;div style=&quot;border-color: var(--border-color); line-height: 130%;&quot;&gt;&lt;span style=&quot;border-color: var(--border-color); background-color: initial;&quot;&gt;summonerLevel int(5)&lt;/span&gt;&lt;/div&gt;&lt;div style=&quot;border-color: var(--border-color); line-height: 130%;&quot;&gt;&lt;span style=&quot;border-color: var(--border-color); background-color: initial;&quot;&gt;gameDuration int(5)&lt;/span&gt;&lt;/div&gt;&lt;div style=&quot;border-color: var(--border-color); line-height: 130%;&quot;&gt;&lt;span style=&quot;border-color: var(--border-color); background-color: initial;&quot;&gt;teamPosition varchar(255)&lt;/span&gt;&lt;/div&gt;&lt;div style=&quot;border-color: var(--border-color); line-height: 130%;&quot;&gt;&lt;span style=&quot;border-color: var(--border-color); background-color: initial;&quot;&gt;championName varchar(255)&lt;/span&gt;&lt;/div&gt;&lt;div style=&quot;border-color: var(--border-color); line-height: 130%;&quot;&gt;&lt;span style=&quot;border-color: var(--border-color); background-color: initial;&quot;&gt;championId varchar(255)&lt;/span&gt;&lt;/div&gt;&lt;div style=&quot;border-color: var(--border-color); line-height: 130%;&quot;&gt;&lt;span style=&quot;border-color: var(--border-color); background-color: initial;&quot;&gt;champLevel int(4)&lt;/span&gt;&lt;/div&gt;&lt;div style=&quot;border-color: var(--border-color); line-height: 130%;&quot;&gt;&lt;span style=&quot;border-color: var(--border-color); background-color: initial;&quot;&gt;assists int(4)&lt;/span&gt;&lt;/div&gt;&lt;div style=&quot;border-color: var(--border-color); line-height: 130%;&quot;&gt;&lt;span style=&quot;border-color: var(--border-color); background-color: initial;&quot;&gt;kills int(3)&lt;/span&gt;&lt;/div&gt;&lt;div style=&quot;border-color: var(--border-color); line-height: 130%;&quot;&gt;&lt;span style=&quot;border-color: var(--border-color); background-color: initial;&quot;&gt;deaths int(4)&lt;/span&gt;&lt;/div&gt;&lt;div style=&quot;border-color: var(--border-color); line-height: 130%;&quot;&gt;&lt;span style=&quot;border-color: var(--border-color); background-color: initial;&quot;&gt;defense varchar(255)&lt;/span&gt;&lt;/div&gt;&lt;div style=&quot;border-color: var(--border-color); line-height: 130%;&quot;&gt;&lt;span style=&quot;border-color: var(--border-color); background-color: initial;&quot;&gt;flex varchar(255)&lt;/span&gt;&lt;/div&gt;&lt;div style=&quot;border-color: var(--border-color); line-height: 130%;&quot;&gt;&lt;span style=&quot;border-color: var(--border-color); background-color: initial;&quot;&gt;offense varchar(255)&lt;/span&gt;&lt;/div&gt;&lt;div style=&quot;border-color: var(--border-color); line-height: 130%;&quot;&gt;&lt;span style=&quot;border-color: var(--border-color); background-color: initial;&quot;&gt;prim1_perk varchar(255)&lt;/span&gt;&lt;/div&gt;&lt;div style=&quot;border-color: var(--border-color); line-height: 130%;&quot;&gt;&lt;span style=&quot;border-color: var(--border-color); background-color: initial;&quot;&gt;prim2_perk varchar(255)&lt;/span&gt;&lt;/div&gt;&lt;div style=&quot;border-color: var(--border-color); line-height: 130%;&quot;&gt;&lt;span style=&quot;border-color: var(--border-color); background-color: initial;&quot;&gt;prim3_perk varchar(255)&lt;/span&gt;&lt;/div&gt;&lt;div style=&quot;border-color: var(--border-color); line-height: 130%;&quot;&gt;&lt;span style=&quot;border-color: var(--border-color); background-color: initial;&quot;&gt;prim4_perk varchar(255)&lt;/span&gt;&lt;/div&gt;&lt;div style=&quot;border-color: var(--border-color); line-height: 130%;&quot;&gt;&lt;span style=&quot;border-color: var(--border-color); background-color: initial;&quot;&gt;prim_style varchar(255)&lt;/span&gt;&lt;/div&gt;&lt;div style=&quot;border-color: var(--border-color); line-height: 130%;&quot;&gt;&lt;span style=&quot;border-color: var(--border-color); background-color: initial;&quot;&gt;sub1_perk varchar(255)&lt;/span&gt;&lt;/div&gt;&lt;div style=&quot;border-color: var(--border-color); line-height: 130%;&quot;&gt;&lt;span style=&quot;border-color: var(--border-color); background-color: initial;&quot;&gt;sub2_perk varchar(255)&lt;/span&gt;&lt;/div&gt;&lt;div style=&quot;border-color: var(--border-color); line-height: 130%;&quot;&gt;&lt;span style=&quot;border-color: var(--border-color); background-color: initial;&quot;&gt;sub_style varchar(255)&lt;/span&gt;&lt;/div&gt;&lt;div style=&quot;border-color: var(--border-color); line-height: 130%;&quot;&gt;&lt;span style=&quot;border-color: var(--border-color); background-color: initial;&quot;&gt;item0 varchar(255)&lt;/span&gt;&lt;/div&gt;&lt;div style=&quot;border-color: var(--border-color); line-height: 130%;&quot;&gt;&lt;span style=&quot;border-color: var(--border-color); background-color: initial;&quot;&gt;item1 varchar(255)&lt;/span&gt;&lt;/div&gt;&lt;div style=&quot;border-color: var(--border-color); line-height: 130%;&quot;&gt;&lt;span style=&quot;border-color: var(--border-color); background-color: initial;&quot;&gt;item2 varchar(255)&lt;/span&gt;&lt;/div&gt;&lt;div style=&quot;border-color: var(--border-color); line-height: 130%;&quot;&gt;&lt;span style=&quot;border-color: var(--border-color); background-color: initial;&quot;&gt;item3 varchar(255)&lt;/span&gt;&lt;/div&gt;&lt;div style=&quot;border-color: var(--border-color); line-height: 130%;&quot;&gt;&lt;span style=&quot;border-color: var(--border-color); background-color: initial;&quot;&gt;item4 varchar(255)&lt;/span&gt;&lt;/div&gt;&lt;div style=&quot;border-color: var(--border-color); line-height: 130%;&quot;&gt;&lt;span style=&quot;border-color: var(--border-color); background-color: initial;&quot;&gt;item5 varchar(255)&lt;/span&gt;&lt;/div&gt;&lt;div style=&quot;border-color: var(--border-color); line-height: 130%;&quot;&gt;&lt;span style=&quot;border-color: var(--border-color); background-color: initial;&quot;&gt;item6 varchar(255)&lt;/span&gt;&lt;/div&gt;&lt;div style=&quot;border-color: var(--border-color); line-height: 130%;&quot;&gt;&lt;span style=&quot;border-color: var(--border-color); background-color: initial;&quot;&gt;&lt;br style=&quot;border-color: var(--border-color);&quot;&gt;&lt;/span&gt;&lt;/div&gt;&lt;div style=&quot;border-color: var(--border-color); line-height: 130%;&quot;&gt;&lt;span style=&quot;border-color: var(--border-color); background-color: initial;&quot;&gt;totalDamToCham&amp;nbsp;varchar(255)&lt;/span&gt;&lt;/div&gt;&lt;div style=&quot;border-color: var(--border-color); line-height: 130%;&quot;&gt;&lt;span style=&quot;border-color: var(--border-color); background-color: initial;&quot;&gt;totalDamTaken&amp;nbsp;varchar(255)&lt;/span&gt;&lt;/div&gt;&lt;div style=&quot;border-color: var(--border-color); line-height: 130%;&quot;&gt;&lt;span style=&quot;border-color: var(--border-color); background-color: initial;&quot;&gt;totalMinionsKilled&amp;nbsp;int(4)&lt;/span&gt;&lt;/div&gt;&lt;div style=&quot;border-color: var(--border-color); line-height: 130%;&quot;&gt;&lt;span style=&quot;border-color: var(--border-color); background-color: initial;&quot;&gt;totalEnemyJunKilled&amp;nbsp;int(4)&lt;/span&gt;&lt;/div&gt;&lt;div style=&quot;border-color: var(--border-color); line-height: 130%;&quot;&gt;&lt;span style=&quot;border-color: var(--border-color); background-color: initial;&quot;&gt;totalAllyJunKilled&amp;nbsp;int(4)&lt;/span&gt;&lt;/div&gt;&lt;div style=&quot;border-color: var(--border-color); line-height: 130%;&quot;&gt;&lt;span style=&quot;border-color: var(--border-color); background-color: initial;&quot;&gt;detWardsPlaced&amp;nbsp;int(4)&lt;/span&gt;&lt;/div&gt;&lt;div style=&quot;border-color: var(--border-color); line-height: 130%;&quot;&gt;&lt;span style=&quot;border-color: var(--border-color); background-color: initial;&quot;&gt;goldEarned int(6)&lt;/span&gt;&lt;/div&gt;&lt;div style=&quot;border-color: var(--border-color); line-height: 130%;&quot;&gt;&lt;span style=&quot;border-color: var(--border-color); background-color: initial;&quot;&gt;bans varchar(255)&lt;/span&gt;&lt;/div&gt;&lt;div style=&quot;border-color: var(--border-color); line-height: 130%;&quot;&gt;&lt;span style=&quot;border-color: var(--border-color); background-color: initial;&quot;&gt;timeCCingOthers&amp;nbsp;int(5)&lt;/span&gt;&lt;/div&gt;&lt;div style=&quot;border-color: var(--border-color); line-height: 130%;&quot;&gt;&lt;span style=&quot;border-color: var(--border-color); background-color: initial;&quot;&gt;summoner1Id varchar(255)&lt;/span&gt;&lt;/div&gt;&lt;div style=&quot;border-color: var(--border-color); line-height: 130%;&quot;&gt;&lt;span style=&quot;border-color: var(--border-color); background-color: initial;&quot;&gt;summoner2Id varchar(255)&lt;/span&gt;&lt;/div&gt;&lt;div style=&quot;border-color: var(--border-color); line-height: 130%;&quot;&gt;&lt;span style=&quot;border-color: var(--border-color); background-color: initial;&quot;&gt;first_pur1 varchar(255)&lt;/span&gt;&lt;/div&gt;&lt;div style=&quot;border-color: var(--border-color); line-height: 130%;&quot;&gt;&lt;span style=&quot;border-color: var(--border-color); background-color: initial;&quot;&gt;first_pur2 varchar(255)&lt;/span&gt;&lt;/div&gt;&lt;div style=&quot;border-color: var(--border-color); line-height: 130%;&quot;&gt;&lt;span style=&quot;border-color: var(--border-color); background-color: initial;&quot;&gt;first_pur3 varchar(255)&lt;/span&gt;&lt;/div&gt;&lt;div style=&quot;border-color: var(--border-color); line-height: 130%;&quot;&gt;&lt;span style=&quot;border-color: var(--border-color); background-color: initial;&quot;&gt;first_pur4 varchar(255)&lt;/span&gt;&lt;/div&gt;&lt;div style=&quot;border-color: var(--border-color); line-height: 130%;&quot;&gt;&lt;span style=&quot;border-color: var(--border-color); background-color: initial;&quot;&gt;first_pur5 varchar(255)&lt;/span&gt;&lt;/div&gt;&lt;div style=&quot;border-color: var(--border-color); line-height: 130%;&quot;&gt;&lt;span style=&quot;border-color: var(--border-color); background-color: initial;&quot;&gt;first_pur6 varchar(255)&lt;/span&gt;&lt;/div&gt;&lt;div style=&quot;border-color: var(--border-color); line-height: 130%;&quot;&gt;&lt;span style=&quot;border-color: var(--border-color); background-color: initial;&quot;&gt;first_pur7 varchar(255)&lt;/span&gt;&lt;/div&gt;&lt;div style=&quot;border-color: var(--border-color); line-height: 130%;&quot;&gt;&lt;span style=&quot;border-color: var(--border-color); background-color: initial;&quot;&gt;first_pur8 varchar(255)&lt;/span&gt;&lt;/div&gt;&lt;div style=&quot;border-color: var(--border-color); line-height: 130%;&quot;&gt;&lt;span style=&quot;border-color: var(--border-color); background-color: initial;&quot;&gt;&lt;br style=&quot;border-color: var(--border-color);&quot;&gt;&lt;/span&gt;&lt;/div&gt;&lt;div style=&quot;border-color: var(--border-color); line-height: 130%;&quot;&gt;&lt;span style=&quot;border-color: var(--border-color); background-color: initial;&quot;&gt;slot_log varchar(255)&lt;/span&gt;&lt;/div&gt;&lt;div style=&quot;border-color: var(--border-color); line-height: 130%;&quot;&gt;&lt;span style=&quot;border-color: var(--border-color); background-color: initial;&quot;&gt;bans varchar(255)&lt;/span&gt;&lt;/div&gt;&lt;div style=&quot;border-color: var(--border-color); line-height: 130%;&quot;&gt;&lt;span style=&quot;border-color: var(--border-color); background-color: initial;&quot;&gt;&lt;br&gt;&lt;/span&gt;&lt;/div&gt;&lt;div style=&quot;border-color: var(--border-color); line-height: 130%;&quot;&gt;&lt;span style=&quot;border-color: var(--border-color); background-color: initial;&quot;&gt;core1 varchar(255)&lt;/span&gt;&lt;/div&gt;&lt;div style=&quot;border-color: var(--border-color); line-height: 130%;&quot;&gt;&lt;span style=&quot;border-color: var(--border-color); background-color: initial;&quot;&gt;core2 varchar(255)&lt;/span&gt;&lt;/div&gt;&lt;div style=&quot;border-color: var(--border-color); line-height: 130%;&quot;&gt;&lt;span style=&quot;border-color: var(--border-color); background-color: initial;&quot;&gt;core3 varchar(255)&lt;/span&gt;&lt;/div&gt;&lt;div style=&quot;border-color: var(--border-color); line-height: 130%;&quot;&gt;&lt;span style=&quot;border-color: var(--border-color); background-color: initial;&quot;&gt;core4 varchar(255)&lt;/span&gt;&lt;/div&gt;&lt;div style=&quot;border-color: var(--border-color); line-height: 130%;&quot;&gt;&lt;span style=&quot;border-color: var(--border-color); background-color: initial;&quot;&gt;core5 varchar(255)&lt;/span&gt;&lt;/div&gt;&lt;div style=&quot;border-color: var(--border-color); line-height: 130%;&quot;&gt;&lt;span style=&quot;border-color: var(--border-color); background-color: initial;&quot;&gt;core6 varchar(255)&lt;/span&gt;&lt;/div&gt;" style="align=left;strokeColor=none;fillColor=none;spacingLeft=4;fontSize=12;verticalAlign=top;resizable=0;rotatable=0;part=1;html=1;" parent="MOOeBxr5KmztlEnLFUnQ-15" vertex="1">
          <mxGeometry y="30" width="250" height="990" as="geometry" />
        </mxCell>
        <mxCell id="MOOeBxr5KmztlEnLFUnQ-17" value="chall_aram" style="swimlane;childLayout=stackLayout;horizontal=1;startSize=30;horizontalStack=0;rounded=1;fontSize=14;fontStyle=0;strokeWidth=2;resizeParent=0;resizeLast=1;shadow=0;dashed=0;align=center;arcSize=4;whiteSpace=wrap;html=1;" parent="1" vertex="1">
          <mxGeometry x="-50" y="960" width="160" height="130" as="geometry" />
        </mxCell>
        <mxCell id="MOOeBxr5KmztlEnLFUnQ-18" value="&lt;div style=&quot;border-color: var(--border-color); line-height: 130%;&quot;&gt;&lt;br&gt;&lt;/div&gt;" style="align=left;strokeColor=none;fillColor=none;spacingLeft=4;fontSize=12;verticalAlign=top;resizable=0;rotatable=0;part=1;html=1;" parent="MOOeBxr5KmztlEnLFUnQ-17" vertex="1">
          <mxGeometry y="30" width="160" height="100" as="geometry" />
        </mxCell>
        <mxCell id="MOOeBxr5KmztlEnLFUnQ-20" value="&lt;div style=&quot;border-color: var(--border-color); line-height: 130%;&quot;&gt;&lt;br&gt;&lt;/div&gt;" style="align=left;strokeColor=none;fillColor=none;spacingLeft=4;fontSize=12;verticalAlign=top;resizable=0;rotatable=0;part=1;html=1;" parent="1" vertex="1">
          <mxGeometry x="-40" y="1000" width="160" height="100" as="geometry" />
        </mxCell>
        <mxCell id="MOOeBxr5KmztlEnLFUnQ-21" value="chall_win" style="swimlane;childLayout=stackLayout;horizontal=1;startSize=30;horizontalStack=0;rounded=1;fontSize=14;fontStyle=0;strokeWidth=2;resizeParent=0;resizeLast=1;shadow=0;dashed=0;align=center;arcSize=4;whiteSpace=wrap;html=1;" parent="1" vertex="1">
          <mxGeometry x="120" y="960" width="160" height="130" as="geometry" />
        </mxCell>
        <mxCell id="MOOeBxr5KmztlEnLFUnQ-22" value="&lt;div style=&quot;border-color: var(--border-color); line-height: 130%;&quot;&gt;&lt;br&gt;&lt;/div&gt;" style="align=left;strokeColor=none;fillColor=none;spacingLeft=4;fontSize=12;verticalAlign=top;resizable=0;rotatable=0;part=1;html=1;" parent="MOOeBxr5KmztlEnLFUnQ-21" vertex="1">
          <mxGeometry y="30" width="160" height="100" as="geometry" />
        </mxCell>
        <mxCell id="MOOeBxr5KmztlEnLFUnQ-23" value="chall_lose" style="swimlane;childLayout=stackLayout;horizontal=1;startSize=30;horizontalStack=0;rounded=1;fontSize=14;fontStyle=0;strokeWidth=2;resizeParent=0;resizeLast=1;shadow=0;dashed=0;align=center;arcSize=4;whiteSpace=wrap;html=1;" parent="1" vertex="1">
          <mxGeometry x="290" y="960" width="160" height="130" as="geometry" />
        </mxCell>
        <mxCell id="MOOeBxr5KmztlEnLFUnQ-24" value="&lt;div style=&quot;border-color: var(--border-color); line-height: 130%;&quot;&gt;&lt;br&gt;&lt;/div&gt;" style="align=left;strokeColor=none;fillColor=none;spacingLeft=4;fontSize=12;verticalAlign=top;resizable=0;rotatable=0;part=1;html=1;" parent="MOOeBxr5KmztlEnLFUnQ-23" vertex="1">
          <mxGeometry y="30" width="160" height="100" as="geometry" />
        </mxCell>
        <mxCell id="MOOeBxr5KmztlEnLFUnQ-26" value="grand_aram" style="swimlane;childLayout=stackLayout;horizontal=1;startSize=30;horizontalStack=0;rounded=1;fontSize=14;fontStyle=0;strokeWidth=2;resizeParent=0;resizeLast=1;shadow=0;dashed=0;align=center;arcSize=4;whiteSpace=wrap;html=1;" parent="1" vertex="1">
          <mxGeometry x="-48" y="1099" width="160" height="130" as="geometry" />
        </mxCell>
        <mxCell id="MOOeBxr5KmztlEnLFUnQ-27" value="&lt;div style=&quot;border-color: var(--border-color); line-height: 130%;&quot;&gt;&lt;br&gt;&lt;/div&gt;" style="align=left;strokeColor=none;fillColor=none;spacingLeft=4;fontSize=12;verticalAlign=top;resizable=0;rotatable=0;part=1;html=1;" parent="MOOeBxr5KmztlEnLFUnQ-26" vertex="1">
          <mxGeometry y="30" width="160" height="100" as="geometry" />
        </mxCell>
        <mxCell id="MOOeBxr5KmztlEnLFUnQ-28" value="&lt;div style=&quot;border-color: var(--border-color); line-height: 130%;&quot;&gt;&lt;br&gt;&lt;/div&gt;" style="align=left;strokeColor=none;fillColor=none;spacingLeft=4;fontSize=12;verticalAlign=top;resizable=0;rotatable=0;part=1;html=1;" parent="1" vertex="1">
          <mxGeometry x="-38" y="1139" width="160" height="100" as="geometry" />
        </mxCell>
        <mxCell id="MOOeBxr5KmztlEnLFUnQ-29" value="grand_win" style="swimlane;childLayout=stackLayout;horizontal=1;startSize=30;horizontalStack=0;rounded=1;fontSize=14;fontStyle=0;strokeWidth=2;resizeParent=0;resizeLast=1;shadow=0;dashed=0;align=center;arcSize=4;whiteSpace=wrap;html=1;" parent="1" vertex="1">
          <mxGeometry x="122" y="1099" width="160" height="130" as="geometry" />
        </mxCell>
        <mxCell id="MOOeBxr5KmztlEnLFUnQ-30" value="&lt;div style=&quot;border-color: var(--border-color); line-height: 130%;&quot;&gt;&lt;br&gt;&lt;/div&gt;" style="align=left;strokeColor=none;fillColor=none;spacingLeft=4;fontSize=12;verticalAlign=top;resizable=0;rotatable=0;part=1;html=1;" parent="MOOeBxr5KmztlEnLFUnQ-29" vertex="1">
          <mxGeometry y="30" width="160" height="100" as="geometry" />
        </mxCell>
        <mxCell id="MOOeBxr5KmztlEnLFUnQ-31" value="grand_lose" style="swimlane;childLayout=stackLayout;horizontal=1;startSize=30;horizontalStack=0;rounded=1;fontSize=14;fontStyle=0;strokeWidth=2;resizeParent=0;resizeLast=1;shadow=0;dashed=0;align=center;arcSize=4;whiteSpace=wrap;html=1;" parent="1" vertex="1">
          <mxGeometry x="292" y="1099" width="160" height="130" as="geometry" />
        </mxCell>
        <mxCell id="MOOeBxr5KmztlEnLFUnQ-32" value="&lt;div style=&quot;border-color: var(--border-color); line-height: 130%;&quot;&gt;&lt;br&gt;&lt;/div&gt;" style="align=left;strokeColor=none;fillColor=none;spacingLeft=4;fontSize=12;verticalAlign=top;resizable=0;rotatable=0;part=1;html=1;" parent="MOOeBxr5KmztlEnLFUnQ-31" vertex="1">
          <mxGeometry y="30" width="160" height="100" as="geometry" />
        </mxCell>
        <mxCell id="MOOeBxr5KmztlEnLFUnQ-33" value="mast_aram" style="swimlane;childLayout=stackLayout;horizontal=1;startSize=30;horizontalStack=0;rounded=1;fontSize=14;fontStyle=0;strokeWidth=2;resizeParent=0;resizeLast=1;shadow=0;dashed=0;align=center;arcSize=4;whiteSpace=wrap;html=1;" parent="1" vertex="1">
          <mxGeometry x="-48" y="1239" width="160" height="130" as="geometry" />
        </mxCell>
        <mxCell id="MOOeBxr5KmztlEnLFUnQ-34" value="&lt;div style=&quot;border-color: var(--border-color); line-height: 130%;&quot;&gt;&lt;br&gt;&lt;/div&gt;" style="align=left;strokeColor=none;fillColor=none;spacingLeft=4;fontSize=12;verticalAlign=top;resizable=0;rotatable=0;part=1;html=1;" parent="MOOeBxr5KmztlEnLFUnQ-33" vertex="1">
          <mxGeometry y="30" width="160" height="100" as="geometry" />
        </mxCell>
        <mxCell id="MOOeBxr5KmztlEnLFUnQ-35" value="&lt;div style=&quot;border-color: var(--border-color); line-height: 130%;&quot;&gt;&lt;br&gt;&lt;/div&gt;" style="align=left;strokeColor=none;fillColor=none;spacingLeft=4;fontSize=12;verticalAlign=top;resizable=0;rotatable=0;part=1;html=1;" parent="1" vertex="1">
          <mxGeometry x="-38" y="1279" width="160" height="100" as="geometry" />
        </mxCell>
        <mxCell id="MOOeBxr5KmztlEnLFUnQ-36" value="mast_win" style="swimlane;childLayout=stackLayout;horizontal=1;startSize=30;horizontalStack=0;rounded=1;fontSize=14;fontStyle=0;strokeWidth=2;resizeParent=0;resizeLast=1;shadow=0;dashed=0;align=center;arcSize=4;whiteSpace=wrap;html=1;" parent="1" vertex="1">
          <mxGeometry x="122" y="1239" width="160" height="130" as="geometry" />
        </mxCell>
        <mxCell id="MOOeBxr5KmztlEnLFUnQ-37" value="&lt;div style=&quot;border-color: var(--border-color); line-height: 130%;&quot;&gt;&lt;br&gt;&lt;/div&gt;" style="align=left;strokeColor=none;fillColor=none;spacingLeft=4;fontSize=12;verticalAlign=top;resizable=0;rotatable=0;part=1;html=1;" parent="MOOeBxr5KmztlEnLFUnQ-36" vertex="1">
          <mxGeometry y="30" width="160" height="100" as="geometry" />
        </mxCell>
        <mxCell id="MOOeBxr5KmztlEnLFUnQ-38" value="mast_lose" style="swimlane;childLayout=stackLayout;horizontal=1;startSize=30;horizontalStack=0;rounded=1;fontSize=14;fontStyle=0;strokeWidth=2;resizeParent=0;resizeLast=1;shadow=0;dashed=0;align=center;arcSize=4;whiteSpace=wrap;html=1;" parent="1" vertex="1">
          <mxGeometry x="292" y="1239" width="160" height="130" as="geometry" />
        </mxCell>
        <mxCell id="MOOeBxr5KmztlEnLFUnQ-39" value="&lt;div style=&quot;border-color: var(--border-color); line-height: 130%;&quot;&gt;&lt;br&gt;&lt;/div&gt;" style="align=left;strokeColor=none;fillColor=none;spacingLeft=4;fontSize=12;verticalAlign=top;resizable=0;rotatable=0;part=1;html=1;" parent="MOOeBxr5KmztlEnLFUnQ-38" vertex="1">
          <mxGeometry y="30" width="160" height="100" as="geometry" />
        </mxCell>
        <mxCell id="MOOeBxr5KmztlEnLFUnQ-84" value="dia_aram" style="swimlane;childLayout=stackLayout;horizontal=1;startSize=30;horizontalStack=0;rounded=1;fontSize=14;fontStyle=0;strokeWidth=2;resizeParent=0;resizeLast=1;shadow=0;dashed=0;align=center;arcSize=4;whiteSpace=wrap;html=1;" parent="1" vertex="1">
          <mxGeometry x="495.5" y="958.5" width="160" height="130" as="geometry" />
        </mxCell>
        <mxCell id="MOOeBxr5KmztlEnLFUnQ-85" value="&lt;div style=&quot;border-color: var(--border-color); line-height: 130%;&quot;&gt;&lt;br&gt;&lt;/div&gt;" style="align=left;strokeColor=none;fillColor=none;spacingLeft=4;fontSize=12;verticalAlign=top;resizable=0;rotatable=0;part=1;html=1;" parent="MOOeBxr5KmztlEnLFUnQ-84" vertex="1">
          <mxGeometry y="30" width="160" height="100" as="geometry" />
        </mxCell>
        <mxCell id="MOOeBxr5KmztlEnLFUnQ-86" value="&lt;div style=&quot;border-color: var(--border-color); line-height: 130%;&quot;&gt;&lt;br&gt;&lt;/div&gt;" style="align=left;strokeColor=none;fillColor=none;spacingLeft=4;fontSize=12;verticalAlign=top;resizable=0;rotatable=0;part=1;html=1;" parent="1" vertex="1">
          <mxGeometry x="505.5" y="998.5" width="160" height="100" as="geometry" />
        </mxCell>
        <mxCell id="MOOeBxr5KmztlEnLFUnQ-87" value="chall_win" style="swimlane;childLayout=stackLayout;horizontal=1;startSize=30;horizontalStack=0;rounded=1;fontSize=14;fontStyle=0;strokeWidth=2;resizeParent=0;resizeLast=1;shadow=0;dashed=0;align=center;arcSize=4;whiteSpace=wrap;html=1;" parent="1" vertex="1">
          <mxGeometry x="665.5" y="958.5" width="160" height="130" as="geometry" />
        </mxCell>
        <mxCell id="MOOeBxr5KmztlEnLFUnQ-88" value="&lt;div style=&quot;border-color: var(--border-color); line-height: 130%;&quot;&gt;&lt;br&gt;&lt;/div&gt;" style="align=left;strokeColor=none;fillColor=none;spacingLeft=4;fontSize=12;verticalAlign=top;resizable=0;rotatable=0;part=1;html=1;" parent="MOOeBxr5KmztlEnLFUnQ-87" vertex="1">
          <mxGeometry y="30" width="160" height="100" as="geometry" />
        </mxCell>
        <mxCell id="MOOeBxr5KmztlEnLFUnQ-89" value="chall_lose" style="swimlane;childLayout=stackLayout;horizontal=1;startSize=30;horizontalStack=0;rounded=1;fontSize=14;fontStyle=0;strokeWidth=2;resizeParent=0;resizeLast=1;shadow=0;dashed=0;align=center;arcSize=4;whiteSpace=wrap;html=1;" parent="1" vertex="1">
          <mxGeometry x="835.5" y="958.5" width="160" height="130" as="geometry" />
        </mxCell>
        <mxCell id="MOOeBxr5KmztlEnLFUnQ-90" value="&lt;div style=&quot;border-color: var(--border-color); line-height: 130%;&quot;&gt;&lt;br&gt;&lt;/div&gt;" style="align=left;strokeColor=none;fillColor=none;spacingLeft=4;fontSize=12;verticalAlign=top;resizable=0;rotatable=0;part=1;html=1;" parent="MOOeBxr5KmztlEnLFUnQ-89" vertex="1">
          <mxGeometry y="30" width="160" height="100" as="geometry" />
        </mxCell>
        <mxCell id="MOOeBxr5KmztlEnLFUnQ-91" value="grand_aram" style="swimlane;childLayout=stackLayout;horizontal=1;startSize=30;horizontalStack=0;rounded=1;fontSize=14;fontStyle=0;strokeWidth=2;resizeParent=0;resizeLast=1;shadow=0;dashed=0;align=center;arcSize=4;whiteSpace=wrap;html=1;" parent="1" vertex="1">
          <mxGeometry x="497.5" y="1097.5" width="160" height="130" as="geometry" />
        </mxCell>
        <mxCell id="MOOeBxr5KmztlEnLFUnQ-92" value="&lt;div style=&quot;border-color: var(--border-color); line-height: 130%;&quot;&gt;&lt;br&gt;&lt;/div&gt;" style="align=left;strokeColor=none;fillColor=none;spacingLeft=4;fontSize=12;verticalAlign=top;resizable=0;rotatable=0;part=1;html=1;" parent="MOOeBxr5KmztlEnLFUnQ-91" vertex="1">
          <mxGeometry y="30" width="160" height="100" as="geometry" />
        </mxCell>
        <mxCell id="MOOeBxr5KmztlEnLFUnQ-93" value="&lt;div style=&quot;border-color: var(--border-color); line-height: 130%;&quot;&gt;&lt;br&gt;&lt;/div&gt;" style="align=left;strokeColor=none;fillColor=none;spacingLeft=4;fontSize=12;verticalAlign=top;resizable=0;rotatable=0;part=1;html=1;" parent="1" vertex="1">
          <mxGeometry x="507.5" y="1137.5" width="160" height="100" as="geometry" />
        </mxCell>
        <mxCell id="MOOeBxr5KmztlEnLFUnQ-94" value="grand_win" style="swimlane;childLayout=stackLayout;horizontal=1;startSize=30;horizontalStack=0;rounded=1;fontSize=14;fontStyle=0;strokeWidth=2;resizeParent=0;resizeLast=1;shadow=0;dashed=0;align=center;arcSize=4;whiteSpace=wrap;html=1;" parent="1" vertex="1">
          <mxGeometry x="667.5" y="1097.5" width="160" height="130" as="geometry" />
        </mxCell>
        <mxCell id="MOOeBxr5KmztlEnLFUnQ-95" value="&lt;div style=&quot;border-color: var(--border-color); line-height: 130%;&quot;&gt;&lt;br&gt;&lt;/div&gt;" style="align=left;strokeColor=none;fillColor=none;spacingLeft=4;fontSize=12;verticalAlign=top;resizable=0;rotatable=0;part=1;html=1;" parent="MOOeBxr5KmztlEnLFUnQ-94" vertex="1">
          <mxGeometry y="30" width="160" height="100" as="geometry" />
        </mxCell>
        <mxCell id="MOOeBxr5KmztlEnLFUnQ-96" value="grand_lose" style="swimlane;childLayout=stackLayout;horizontal=1;startSize=30;horizontalStack=0;rounded=1;fontSize=14;fontStyle=0;strokeWidth=2;resizeParent=0;resizeLast=1;shadow=0;dashed=0;align=center;arcSize=4;whiteSpace=wrap;html=1;" parent="1" vertex="1">
          <mxGeometry x="837.5" y="1097.5" width="160" height="130" as="geometry" />
        </mxCell>
        <mxCell id="MOOeBxr5KmztlEnLFUnQ-97" value="&lt;div style=&quot;border-color: var(--border-color); line-height: 130%;&quot;&gt;&lt;br&gt;&lt;/div&gt;" style="align=left;strokeColor=none;fillColor=none;spacingLeft=4;fontSize=12;verticalAlign=top;resizable=0;rotatable=0;part=1;html=1;" parent="MOOeBxr5KmztlEnLFUnQ-96" vertex="1">
          <mxGeometry y="30" width="160" height="100" as="geometry" />
        </mxCell>
        <mxCell id="MOOeBxr5KmztlEnLFUnQ-98" value="mast_aram" style="swimlane;childLayout=stackLayout;horizontal=1;startSize=30;horizontalStack=0;rounded=1;fontSize=14;fontStyle=0;strokeWidth=2;resizeParent=0;resizeLast=1;shadow=0;dashed=0;align=center;arcSize=4;whiteSpace=wrap;html=1;" parent="1" vertex="1">
          <mxGeometry x="497.5" y="1237.5" width="160" height="130" as="geometry" />
        </mxCell>
        <mxCell id="MOOeBxr5KmztlEnLFUnQ-99" value="&lt;div style=&quot;border-color: var(--border-color); line-height: 130%;&quot;&gt;&lt;br&gt;&lt;/div&gt;" style="align=left;strokeColor=none;fillColor=none;spacingLeft=4;fontSize=12;verticalAlign=top;resizable=0;rotatable=0;part=1;html=1;" parent="MOOeBxr5KmztlEnLFUnQ-98" vertex="1">
          <mxGeometry y="30" width="160" height="100" as="geometry" />
        </mxCell>
        <mxCell id="MOOeBxr5KmztlEnLFUnQ-100" value="&lt;div style=&quot;border-color: var(--border-color); line-height: 130%;&quot;&gt;&lt;br&gt;&lt;/div&gt;" style="align=left;strokeColor=none;fillColor=none;spacingLeft=4;fontSize=12;verticalAlign=top;resizable=0;rotatable=0;part=1;html=1;" parent="1" vertex="1">
          <mxGeometry x="507.5" y="1277.5" width="160" height="100" as="geometry" />
        </mxCell>
        <mxCell id="MOOeBxr5KmztlEnLFUnQ-101" value="mast_win" style="swimlane;childLayout=stackLayout;horizontal=1;startSize=30;horizontalStack=0;rounded=1;fontSize=14;fontStyle=0;strokeWidth=2;resizeParent=0;resizeLast=1;shadow=0;dashed=0;align=center;arcSize=4;whiteSpace=wrap;html=1;" parent="1" vertex="1">
          <mxGeometry x="667.5" y="1237.5" width="160" height="130" as="geometry" />
        </mxCell>
        <mxCell id="MOOeBxr5KmztlEnLFUnQ-102" value="&lt;div style=&quot;border-color: var(--border-color); line-height: 130%;&quot;&gt;&lt;br&gt;&lt;/div&gt;" style="align=left;strokeColor=none;fillColor=none;spacingLeft=4;fontSize=12;verticalAlign=top;resizable=0;rotatable=0;part=1;html=1;" parent="MOOeBxr5KmztlEnLFUnQ-101" vertex="1">
          <mxGeometry y="30" width="160" height="100" as="geometry" />
        </mxCell>
        <mxCell id="MOOeBxr5KmztlEnLFUnQ-103" value="mast_lose" style="swimlane;childLayout=stackLayout;horizontal=1;startSize=30;horizontalStack=0;rounded=1;fontSize=14;fontStyle=0;strokeWidth=2;resizeParent=0;resizeLast=1;shadow=0;dashed=0;align=center;arcSize=4;whiteSpace=wrap;html=1;" parent="1" vertex="1">
          <mxGeometry x="837.5" y="1237.5" width="160" height="130" as="geometry" />
        </mxCell>
        <mxCell id="MOOeBxr5KmztlEnLFUnQ-104" value="&lt;div style=&quot;border-color: var(--border-color); line-height: 130%;&quot;&gt;&lt;br&gt;&lt;/div&gt;" style="align=left;strokeColor=none;fillColor=none;spacingLeft=4;fontSize=12;verticalAlign=top;resizable=0;rotatable=0;part=1;html=1;" parent="MOOeBxr5KmztlEnLFUnQ-103" vertex="1">
          <mxGeometry y="30" width="160" height="100" as="geometry" />
        </mxCell>
        <mxCell id="MOOeBxr5KmztlEnLFUnQ-105" value="chall_aram" style="swimlane;childLayout=stackLayout;horizontal=1;startSize=30;horizontalStack=0;rounded=1;fontSize=14;fontStyle=0;strokeWidth=2;resizeParent=0;resizeLast=1;shadow=0;dashed=0;align=center;arcSize=4;whiteSpace=wrap;html=1;" parent="1" vertex="1">
          <mxGeometry x="141" y="1420" width="160" height="130" as="geometry" />
        </mxCell>
        <mxCell id="MOOeBxr5KmztlEnLFUnQ-106" value="&lt;div style=&quot;border-color: var(--border-color); line-height: 130%;&quot;&gt;&lt;br&gt;&lt;/div&gt;" style="align=left;strokeColor=none;fillColor=none;spacingLeft=4;fontSize=12;verticalAlign=top;resizable=0;rotatable=0;part=1;html=1;" parent="MOOeBxr5KmztlEnLFUnQ-105" vertex="1">
          <mxGeometry y="30" width="160" height="100" as="geometry" />
        </mxCell>
        <mxCell id="MOOeBxr5KmztlEnLFUnQ-107" value="&lt;div style=&quot;border-color: var(--border-color); line-height: 130%;&quot;&gt;&lt;br&gt;&lt;/div&gt;" style="align=left;strokeColor=none;fillColor=none;spacingLeft=4;fontSize=12;verticalAlign=top;resizable=0;rotatable=0;part=1;html=1;" parent="1" vertex="1">
          <mxGeometry x="151" y="1460" width="160" height="100" as="geometry" />
        </mxCell>
        <mxCell id="MOOeBxr5KmztlEnLFUnQ-108" value="chall_win" style="swimlane;childLayout=stackLayout;horizontal=1;startSize=30;horizontalStack=0;rounded=1;fontSize=14;fontStyle=0;strokeWidth=2;resizeParent=0;resizeLast=1;shadow=0;dashed=0;align=center;arcSize=4;whiteSpace=wrap;html=1;" parent="1" vertex="1">
          <mxGeometry x="311" y="1420" width="160" height="130" as="geometry" />
        </mxCell>
        <mxCell id="MOOeBxr5KmztlEnLFUnQ-109" value="&lt;div style=&quot;border-color: var(--border-color); line-height: 130%;&quot;&gt;&lt;br&gt;&lt;/div&gt;" style="align=left;strokeColor=none;fillColor=none;spacingLeft=4;fontSize=12;verticalAlign=top;resizable=0;rotatable=0;part=1;html=1;" parent="MOOeBxr5KmztlEnLFUnQ-108" vertex="1">
          <mxGeometry y="30" width="160" height="100" as="geometry" />
        </mxCell>
        <mxCell id="MOOeBxr5KmztlEnLFUnQ-110" value="chall_lose" style="swimlane;childLayout=stackLayout;horizontal=1;startSize=30;horizontalStack=0;rounded=1;fontSize=14;fontStyle=0;strokeWidth=2;resizeParent=0;resizeLast=1;shadow=0;dashed=0;align=center;arcSize=4;whiteSpace=wrap;html=1;" parent="1" vertex="1">
          <mxGeometry x="481" y="1420" width="160" height="130" as="geometry" />
        </mxCell>
        <mxCell id="MOOeBxr5KmztlEnLFUnQ-111" value="&lt;div style=&quot;border-color: var(--border-color); line-height: 130%;&quot;&gt;&lt;br&gt;&lt;/div&gt;" style="align=left;strokeColor=none;fillColor=none;spacingLeft=4;fontSize=12;verticalAlign=top;resizable=0;rotatable=0;part=1;html=1;" parent="MOOeBxr5KmztlEnLFUnQ-110" vertex="1">
          <mxGeometry y="30" width="160" height="100" as="geometry" />
        </mxCell>
        <mxCell id="MOOeBxr5KmztlEnLFUnQ-112" value="grand_aram" style="swimlane;childLayout=stackLayout;horizontal=1;startSize=30;horizontalStack=0;rounded=1;fontSize=14;fontStyle=0;strokeWidth=2;resizeParent=0;resizeLast=1;shadow=0;dashed=0;align=center;arcSize=4;whiteSpace=wrap;html=1;" parent="1" vertex="1">
          <mxGeometry x="143" y="1559" width="160" height="130" as="geometry" />
        </mxCell>
        <mxCell id="MOOeBxr5KmztlEnLFUnQ-113" value="&lt;div style=&quot;border-color: var(--border-color); line-height: 130%;&quot;&gt;&lt;br&gt;&lt;/div&gt;" style="align=left;strokeColor=none;fillColor=none;spacingLeft=4;fontSize=12;verticalAlign=top;resizable=0;rotatable=0;part=1;html=1;" parent="MOOeBxr5KmztlEnLFUnQ-112" vertex="1">
          <mxGeometry y="30" width="160" height="100" as="geometry" />
        </mxCell>
        <mxCell id="MOOeBxr5KmztlEnLFUnQ-114" value="&lt;div style=&quot;border-color: var(--border-color); line-height: 130%;&quot;&gt;&lt;br&gt;&lt;/div&gt;" style="align=left;strokeColor=none;fillColor=none;spacingLeft=4;fontSize=12;verticalAlign=top;resizable=0;rotatable=0;part=1;html=1;" parent="1" vertex="1">
          <mxGeometry x="153" y="1599" width="160" height="100" as="geometry" />
        </mxCell>
        <mxCell id="MOOeBxr5KmztlEnLFUnQ-115" value="grand_win" style="swimlane;childLayout=stackLayout;horizontal=1;startSize=30;horizontalStack=0;rounded=1;fontSize=14;fontStyle=0;strokeWidth=2;resizeParent=0;resizeLast=1;shadow=0;dashed=0;align=center;arcSize=4;whiteSpace=wrap;html=1;" parent="1" vertex="1">
          <mxGeometry x="313" y="1559" width="160" height="130" as="geometry" />
        </mxCell>
        <mxCell id="MOOeBxr5KmztlEnLFUnQ-116" value="&lt;div style=&quot;border-color: var(--border-color); line-height: 130%;&quot;&gt;&lt;br&gt;&lt;/div&gt;" style="align=left;strokeColor=none;fillColor=none;spacingLeft=4;fontSize=12;verticalAlign=top;resizable=0;rotatable=0;part=1;html=1;" parent="MOOeBxr5KmztlEnLFUnQ-115" vertex="1">
          <mxGeometry y="30" width="160" height="100" as="geometry" />
        </mxCell>
        <mxCell id="MOOeBxr5KmztlEnLFUnQ-117" value="grand_lose" style="swimlane;childLayout=stackLayout;horizontal=1;startSize=30;horizontalStack=0;rounded=1;fontSize=14;fontStyle=0;strokeWidth=2;resizeParent=0;resizeLast=1;shadow=0;dashed=0;align=center;arcSize=4;whiteSpace=wrap;html=1;" parent="1" vertex="1">
          <mxGeometry x="483" y="1559" width="160" height="130" as="geometry" />
        </mxCell>
        <mxCell id="MOOeBxr5KmztlEnLFUnQ-118" value="&lt;div style=&quot;border-color: var(--border-color); line-height: 130%;&quot;&gt;&lt;br&gt;&lt;/div&gt;" style="align=left;strokeColor=none;fillColor=none;spacingLeft=4;fontSize=12;verticalAlign=top;resizable=0;rotatable=0;part=1;html=1;" parent="MOOeBxr5KmztlEnLFUnQ-117" vertex="1">
          <mxGeometry y="30" width="160" height="100" as="geometry" />
        </mxCell>
        <mxCell id="MOOeBxr5KmztlEnLFUnQ-119" value="mast_aram" style="swimlane;childLayout=stackLayout;horizontal=1;startSize=30;horizontalStack=0;rounded=1;fontSize=14;fontStyle=0;strokeWidth=2;resizeParent=0;resizeLast=1;shadow=0;dashed=0;align=center;arcSize=4;whiteSpace=wrap;html=1;" parent="1" vertex="1">
          <mxGeometry x="143" y="1699" width="160" height="130" as="geometry" />
        </mxCell>
        <mxCell id="MOOeBxr5KmztlEnLFUnQ-120" value="&lt;div style=&quot;border-color: var(--border-color); line-height: 130%;&quot;&gt;&lt;br&gt;&lt;/div&gt;" style="align=left;strokeColor=none;fillColor=none;spacingLeft=4;fontSize=12;verticalAlign=top;resizable=0;rotatable=0;part=1;html=1;" parent="MOOeBxr5KmztlEnLFUnQ-119" vertex="1">
          <mxGeometry y="30" width="160" height="100" as="geometry" />
        </mxCell>
        <mxCell id="MOOeBxr5KmztlEnLFUnQ-121" value="&lt;div style=&quot;border-color: var(--border-color); line-height: 130%;&quot;&gt;&lt;br&gt;&lt;/div&gt;" style="align=left;strokeColor=none;fillColor=none;spacingLeft=4;fontSize=12;verticalAlign=top;resizable=0;rotatable=0;part=1;html=1;" parent="1" vertex="1">
          <mxGeometry x="153" y="1739" width="160" height="100" as="geometry" />
        </mxCell>
        <mxCell id="MOOeBxr5KmztlEnLFUnQ-122" value="mast_win" style="swimlane;childLayout=stackLayout;horizontal=1;startSize=30;horizontalStack=0;rounded=1;fontSize=14;fontStyle=0;strokeWidth=2;resizeParent=0;resizeLast=1;shadow=0;dashed=0;align=center;arcSize=4;whiteSpace=wrap;html=1;" parent="1" vertex="1">
          <mxGeometry x="313" y="1699" width="160" height="130" as="geometry" />
        </mxCell>
        <mxCell id="MOOeBxr5KmztlEnLFUnQ-123" value="&lt;div style=&quot;border-color: var(--border-color); line-height: 130%;&quot;&gt;&lt;br&gt;&lt;/div&gt;" style="align=left;strokeColor=none;fillColor=none;spacingLeft=4;fontSize=12;verticalAlign=top;resizable=0;rotatable=0;part=1;html=1;" parent="MOOeBxr5KmztlEnLFUnQ-122" vertex="1">
          <mxGeometry y="30" width="160" height="100" as="geometry" />
        </mxCell>
        <mxCell id="MOOeBxr5KmztlEnLFUnQ-124" value="mast_lose" style="swimlane;childLayout=stackLayout;horizontal=1;startSize=30;horizontalStack=0;rounded=1;fontSize=14;fontStyle=0;strokeWidth=2;resizeParent=0;resizeLast=1;shadow=0;dashed=0;align=center;arcSize=4;whiteSpace=wrap;html=1;" parent="1" vertex="1">
          <mxGeometry x="483" y="1699" width="160" height="130" as="geometry" />
        </mxCell>
        <mxCell id="MOOeBxr5KmztlEnLFUnQ-125" value="&lt;div style=&quot;border-color: var(--border-color); line-height: 130%;&quot;&gt;&lt;br&gt;&lt;/div&gt;" style="align=left;strokeColor=none;fillColor=none;spacingLeft=4;fontSize=12;verticalAlign=top;resizable=0;rotatable=0;part=1;html=1;" parent="MOOeBxr5KmztlEnLFUnQ-124" vertex="1">
          <mxGeometry y="30" width="160" height="100" as="geometry" />
        </mxCell>
        <mxCell id="MOOeBxr5KmztlEnLFUnQ-132" value="mast_aram" style="swimlane;childLayout=stackLayout;horizontal=1;startSize=30;horizontalStack=0;rounded=1;fontSize=14;fontStyle=0;strokeWidth=2;resizeParent=0;resizeLast=1;shadow=0;dashed=0;align=center;arcSize=4;whiteSpace=wrap;html=1;" parent="1" vertex="1">
          <mxGeometry x="143" y="1840" width="160" height="130" as="geometry" />
        </mxCell>
        <mxCell id="MOOeBxr5KmztlEnLFUnQ-133" value="&lt;div style=&quot;border-color: var(--border-color); line-height: 130%;&quot;&gt;&lt;br&gt;&lt;/div&gt;" style="align=left;strokeColor=none;fillColor=none;spacingLeft=4;fontSize=12;verticalAlign=top;resizable=0;rotatable=0;part=1;html=1;" parent="MOOeBxr5KmztlEnLFUnQ-132" vertex="1">
          <mxGeometry y="30" width="160" height="100" as="geometry" />
        </mxCell>
        <mxCell id="MOOeBxr5KmztlEnLFUnQ-134" value="&lt;div style=&quot;border-color: var(--border-color); line-height: 130%;&quot;&gt;&lt;br&gt;&lt;/div&gt;" style="align=left;strokeColor=none;fillColor=none;spacingLeft=4;fontSize=12;verticalAlign=top;resizable=0;rotatable=0;part=1;html=1;" parent="1" vertex="1">
          <mxGeometry x="153" y="1880" width="160" height="100" as="geometry" />
        </mxCell>
        <mxCell id="MOOeBxr5KmztlEnLFUnQ-135" value="mast_win" style="swimlane;childLayout=stackLayout;horizontal=1;startSize=30;horizontalStack=0;rounded=1;fontSize=14;fontStyle=0;strokeWidth=2;resizeParent=0;resizeLast=1;shadow=0;dashed=0;align=center;arcSize=4;whiteSpace=wrap;html=1;" parent="1" vertex="1">
          <mxGeometry x="313" y="1840" width="160" height="130" as="geometry" />
        </mxCell>
        <mxCell id="MOOeBxr5KmztlEnLFUnQ-136" value="&lt;div style=&quot;border-color: var(--border-color); line-height: 130%;&quot;&gt;&lt;br&gt;&lt;/div&gt;" style="align=left;strokeColor=none;fillColor=none;spacingLeft=4;fontSize=12;verticalAlign=top;resizable=0;rotatable=0;part=1;html=1;" parent="MOOeBxr5KmztlEnLFUnQ-135" vertex="1">
          <mxGeometry y="30" width="160" height="100" as="geometry" />
        </mxCell>
        <mxCell id="MOOeBxr5KmztlEnLFUnQ-137" value="mast_lose" style="swimlane;childLayout=stackLayout;horizontal=1;startSize=30;horizontalStack=0;rounded=1;fontSize=14;fontStyle=0;strokeWidth=2;resizeParent=0;resizeLast=1;shadow=0;dashed=0;align=center;arcSize=4;whiteSpace=wrap;html=1;" parent="1" vertex="1">
          <mxGeometry x="483" y="1840" width="160" height="130" as="geometry" />
        </mxCell>
        <mxCell id="MOOeBxr5KmztlEnLFUnQ-138" value="&lt;div style=&quot;border-color: var(--border-color); line-height: 130%;&quot;&gt;&lt;br&gt;&lt;/div&gt;" style="align=left;strokeColor=none;fillColor=none;spacingLeft=4;fontSize=12;verticalAlign=top;resizable=0;rotatable=0;part=1;html=1;" parent="MOOeBxr5KmztlEnLFUnQ-137" vertex="1">
          <mxGeometry y="30" width="160" height="100" as="geometry" />
        </mxCell>
        <mxCell id="MOOeBxr5KmztlEnLFUnQ-143" value="chall_cham" style="swimlane;childLayout=stackLayout;horizontal=1;startSize=30;horizontalStack=0;rounded=1;fontSize=14;fontStyle=0;strokeWidth=2;resizeParent=0;resizeLast=1;shadow=0;dashed=0;align=center;arcSize=4;whiteSpace=wrap;html=1;" parent="1" vertex="1">
          <mxGeometry x="2260" y="1093" width="250" height="150" as="geometry" />
        </mxCell>
        <mxCell id="MOOeBxr5KmztlEnLFUnQ-144" value="&lt;div&gt;championName varchar(255) NOT NULL&lt;/div&gt;&lt;div&gt;&lt;span style=&quot;background-color: initial;&quot;&gt;championId varchar(255) NOT NULL&lt;/span&gt;&lt;/div&gt;&lt;div&gt;&lt;span style=&quot;background-color: initial;&quot;&gt;teamPosition varchar(255)&lt;/span&gt;&lt;/div&gt;&lt;div&gt;&lt;span style=&quot;background-color: initial;&quot;&gt;total_cnt int(10)&lt;/span&gt;&lt;/div&gt;&lt;div&gt;&lt;span style=&quot;background-color: initial;&quot;&gt;win_cnt float(10)&lt;/span&gt;&lt;/div&gt;&lt;div&gt;&lt;span style=&quot;background-color: initial;&quot;&gt;ban_cnt float(10)&lt;/span&gt;&lt;/div&gt;&lt;div&gt;&lt;span style=&quot;background-color: initial;&quot;&gt;pick_cnt float(10)&lt;/span&gt;&lt;/div&gt;" style="align=left;strokeColor=none;fillColor=none;spacingLeft=4;fontSize=12;verticalAlign=top;resizable=0;rotatable=0;part=1;html=1;" parent="MOOeBxr5KmztlEnLFUnQ-143" vertex="1">
          <mxGeometry y="30" width="250" height="120" as="geometry" />
        </mxCell>
        <mxCell id="MOOeBxr5KmztlEnLFUnQ-145" value="chall_cham" style="swimlane;childLayout=stackLayout;horizontal=1;startSize=30;horizontalStack=0;rounded=1;fontSize=14;fontStyle=0;strokeWidth=2;resizeParent=0;resizeLast=1;shadow=0;dashed=0;align=center;arcSize=4;whiteSpace=wrap;html=1;" parent="1" vertex="1">
          <mxGeometry x="2530" y="1093" width="250" height="150" as="geometry" />
        </mxCell>
        <mxCell id="MOOeBxr5KmztlEnLFUnQ-146" value="&lt;div&gt;championName varchar(255) NOT NULL&lt;/div&gt;&lt;div&gt;&lt;span style=&quot;background-color: initial;&quot;&gt;championId varchar(255) NOT NULL&lt;/span&gt;&lt;/div&gt;&lt;div&gt;&lt;span style=&quot;background-color: initial;&quot;&gt;teamPosition varchar(255)&lt;/span&gt;&lt;/div&gt;&lt;div&gt;&lt;span style=&quot;background-color: initial;&quot;&gt;total_cnt int(10)&lt;/span&gt;&lt;/div&gt;&lt;div&gt;&lt;span style=&quot;background-color: initial;&quot;&gt;win_cnt float(10)&lt;/span&gt;&lt;/div&gt;&lt;div&gt;&lt;span style=&quot;background-color: initial;&quot;&gt;ban_cnt float(10)&lt;/span&gt;&lt;/div&gt;&lt;div&gt;&lt;span style=&quot;background-color: initial;&quot;&gt;pick_cnt float(10)&lt;/span&gt;&lt;/div&gt;" style="align=left;strokeColor=none;fillColor=none;spacingLeft=4;fontSize=12;verticalAlign=top;resizable=0;rotatable=0;part=1;html=1;" parent="MOOeBxr5KmztlEnLFUnQ-145" vertex="1">
          <mxGeometry y="30" width="250" height="120" as="geometry" />
        </mxCell>
        <mxCell id="MOOeBxr5KmztlEnLFUnQ-147" value="chall_cham" style="swimlane;childLayout=stackLayout;horizontal=1;startSize=30;horizontalStack=0;rounded=1;fontSize=14;fontStyle=0;strokeWidth=2;resizeParent=0;resizeLast=1;shadow=0;dashed=0;align=center;arcSize=4;whiteSpace=wrap;html=1;" parent="1" vertex="1">
          <mxGeometry x="1990" y="1260" width="250" height="150" as="geometry" />
        </mxCell>
        <mxCell id="MOOeBxr5KmztlEnLFUnQ-148" value="&lt;div&gt;championName varchar(255) NOT NULL&lt;/div&gt;&lt;div&gt;&lt;span style=&quot;background-color: initial;&quot;&gt;championId varchar(255) NOT NULL&lt;/span&gt;&lt;/div&gt;&lt;div&gt;&lt;span style=&quot;background-color: initial;&quot;&gt;teamPosition varchar(255)&lt;/span&gt;&lt;/div&gt;&lt;div&gt;&lt;span style=&quot;background-color: initial;&quot;&gt;total_cnt int(10)&lt;/span&gt;&lt;/div&gt;&lt;div&gt;&lt;span style=&quot;background-color: initial;&quot;&gt;win_cnt float(10)&lt;/span&gt;&lt;/div&gt;&lt;div&gt;&lt;span style=&quot;background-color: initial;&quot;&gt;ban_cnt float(10)&lt;/span&gt;&lt;/div&gt;&lt;div&gt;&lt;span style=&quot;background-color: initial;&quot;&gt;pick_cnt float(10)&lt;/span&gt;&lt;/div&gt;" style="align=left;strokeColor=none;fillColor=none;spacingLeft=4;fontSize=12;verticalAlign=top;resizable=0;rotatable=0;part=1;html=1;" parent="MOOeBxr5KmztlEnLFUnQ-147" vertex="1">
          <mxGeometry y="30" width="250" height="120" as="geometry" />
        </mxCell>
        <mxCell id="MOOeBxr5KmztlEnLFUnQ-149" value="chall_cham" style="swimlane;childLayout=stackLayout;horizontal=1;startSize=30;horizontalStack=0;rounded=1;fontSize=14;fontStyle=0;strokeWidth=2;resizeParent=0;resizeLast=1;shadow=0;dashed=0;align=center;arcSize=4;whiteSpace=wrap;html=1;" parent="1" vertex="1">
          <mxGeometry x="2260" y="1260" width="250" height="150" as="geometry" />
        </mxCell>
        <mxCell id="MOOeBxr5KmztlEnLFUnQ-150" value="&lt;div&gt;championName varchar(255) NOT NULL&lt;/div&gt;&lt;div&gt;&lt;span style=&quot;background-color: initial;&quot;&gt;championId varchar(255) NOT NULL&lt;/span&gt;&lt;/div&gt;&lt;div&gt;&lt;span style=&quot;background-color: initial;&quot;&gt;teamPosition varchar(255)&lt;/span&gt;&lt;/div&gt;&lt;div&gt;&lt;span style=&quot;background-color: initial;&quot;&gt;total_cnt int(10)&lt;/span&gt;&lt;/div&gt;&lt;div&gt;&lt;span style=&quot;background-color: initial;&quot;&gt;win_cnt float(10)&lt;/span&gt;&lt;/div&gt;&lt;div&gt;&lt;span style=&quot;background-color: initial;&quot;&gt;ban_cnt float(10)&lt;/span&gt;&lt;/div&gt;&lt;div&gt;&lt;span style=&quot;background-color: initial;&quot;&gt;pick_cnt float(10)&lt;/span&gt;&lt;/div&gt;" style="align=left;strokeColor=none;fillColor=none;spacingLeft=4;fontSize=12;verticalAlign=top;resizable=0;rotatable=0;part=1;html=1;" parent="MOOeBxr5KmztlEnLFUnQ-149" vertex="1">
          <mxGeometry y="30" width="250" height="120" as="geometry" />
        </mxCell>
        <mxCell id="MOOeBxr5KmztlEnLFUnQ-151" value="chall_cham" style="swimlane;childLayout=stackLayout;horizontal=1;startSize=30;horizontalStack=0;rounded=1;fontSize=14;fontStyle=0;strokeWidth=2;resizeParent=0;resizeLast=1;shadow=0;dashed=0;align=center;arcSize=4;whiteSpace=wrap;html=1;" parent="1" vertex="1">
          <mxGeometry x="2530" y="1260" width="250" height="150" as="geometry" />
        </mxCell>
        <mxCell id="MOOeBxr5KmztlEnLFUnQ-152" value="&lt;div&gt;championName varchar(255) NOT NULL&lt;/div&gt;&lt;div&gt;&lt;span style=&quot;background-color: initial;&quot;&gt;championId varchar(255) NOT NULL&lt;/span&gt;&lt;/div&gt;&lt;div&gt;&lt;span style=&quot;background-color: initial;&quot;&gt;teamPosition varchar(255)&lt;/span&gt;&lt;/div&gt;&lt;div&gt;&lt;span style=&quot;background-color: initial;&quot;&gt;total_cnt int(10)&lt;/span&gt;&lt;/div&gt;&lt;div&gt;&lt;span style=&quot;background-color: initial;&quot;&gt;win_cnt float(10)&lt;/span&gt;&lt;/div&gt;&lt;div&gt;&lt;span style=&quot;background-color: initial;&quot;&gt;ban_cnt float(10)&lt;/span&gt;&lt;/div&gt;&lt;div&gt;&lt;span style=&quot;background-color: initial;&quot;&gt;pick_cnt float(10)&lt;/span&gt;&lt;/div&gt;" style="align=left;strokeColor=none;fillColor=none;spacingLeft=4;fontSize=12;verticalAlign=top;resizable=0;rotatable=0;part=1;html=1;" parent="MOOeBxr5KmztlEnLFUnQ-151" vertex="1">
          <mxGeometry y="30" width="250" height="120" as="geometry" />
        </mxCell>
        <mxCell id="MOOeBxr5KmztlEnLFUnQ-153" value="chall_cham" style="swimlane;childLayout=stackLayout;horizontal=1;startSize=30;horizontalStack=0;rounded=1;fontSize=14;fontStyle=0;strokeWidth=2;resizeParent=0;resizeLast=1;shadow=0;dashed=0;align=center;arcSize=4;whiteSpace=wrap;html=1;" parent="1" vertex="1">
          <mxGeometry x="1890" y="1429" width="250" height="150" as="geometry" />
        </mxCell>
        <mxCell id="MOOeBxr5KmztlEnLFUnQ-154" value="&lt;div&gt;championName varchar(255) NOT NULL&lt;/div&gt;&lt;div&gt;&lt;span style=&quot;background-color: initial;&quot;&gt;championId varchar(255) NOT NULL&lt;/span&gt;&lt;/div&gt;&lt;div&gt;&lt;span style=&quot;background-color: initial;&quot;&gt;teamPosition varchar(255)&lt;/span&gt;&lt;/div&gt;&lt;div&gt;&lt;span style=&quot;background-color: initial;&quot;&gt;total_cnt int(10)&lt;/span&gt;&lt;/div&gt;&lt;div&gt;&lt;span style=&quot;background-color: initial;&quot;&gt;win_cnt float(10)&lt;/span&gt;&lt;/div&gt;&lt;div&gt;&lt;span style=&quot;background-color: initial;&quot;&gt;ban_cnt float(10)&lt;/span&gt;&lt;/div&gt;&lt;div&gt;&lt;span style=&quot;background-color: initial;&quot;&gt;pick_cnt float(10)&lt;/span&gt;&lt;/div&gt;" style="align=left;strokeColor=none;fillColor=none;spacingLeft=4;fontSize=12;verticalAlign=top;resizable=0;rotatable=0;part=1;html=1;" parent="MOOeBxr5KmztlEnLFUnQ-153" vertex="1">
          <mxGeometry y="30" width="250" height="120" as="geometry" />
        </mxCell>
        <mxCell id="MOOeBxr5KmztlEnLFUnQ-155" value="chall_cham" style="swimlane;childLayout=stackLayout;horizontal=1;startSize=30;horizontalStack=0;rounded=1;fontSize=14;fontStyle=0;strokeWidth=2;resizeParent=0;resizeLast=1;shadow=0;dashed=0;align=center;arcSize=4;whiteSpace=wrap;html=1;" parent="1" vertex="1">
          <mxGeometry x="2160" y="1429" width="250" height="150" as="geometry" />
        </mxCell>
        <mxCell id="MOOeBxr5KmztlEnLFUnQ-156" value="&lt;div&gt;championName varchar(255) NOT NULL&lt;/div&gt;&lt;div&gt;&lt;span style=&quot;background-color: initial;&quot;&gt;championId varchar(255) NOT NULL&lt;/span&gt;&lt;/div&gt;&lt;div&gt;&lt;span style=&quot;background-color: initial;&quot;&gt;teamPosition varchar(255)&lt;/span&gt;&lt;/div&gt;&lt;div&gt;&lt;span style=&quot;background-color: initial;&quot;&gt;total_cnt int(10)&lt;/span&gt;&lt;/div&gt;&lt;div&gt;&lt;span style=&quot;background-color: initial;&quot;&gt;win_cnt float(10)&lt;/span&gt;&lt;/div&gt;&lt;div&gt;&lt;span style=&quot;background-color: initial;&quot;&gt;ban_cnt float(10)&lt;/span&gt;&lt;/div&gt;&lt;div&gt;&lt;span style=&quot;background-color: initial;&quot;&gt;pick_cnt float(10)&lt;/span&gt;&lt;/div&gt;" style="align=left;strokeColor=none;fillColor=none;spacingLeft=4;fontSize=12;verticalAlign=top;resizable=0;rotatable=0;part=1;html=1;" parent="MOOeBxr5KmztlEnLFUnQ-155" vertex="1">
          <mxGeometry y="30" width="250" height="120" as="geometry" />
        </mxCell>
        <mxCell id="MOOeBxr5KmztlEnLFUnQ-157" value="chall_cham" style="swimlane;childLayout=stackLayout;horizontal=1;startSize=30;horizontalStack=0;rounded=1;fontSize=14;fontStyle=0;strokeWidth=2;resizeParent=0;resizeLast=1;shadow=0;dashed=0;align=center;arcSize=4;whiteSpace=wrap;html=1;" parent="1" vertex="1">
          <mxGeometry x="2430" y="1429" width="250" height="150" as="geometry" />
        </mxCell>
        <mxCell id="MOOeBxr5KmztlEnLFUnQ-158" value="&lt;div&gt;championName varchar(255) NOT NULL&lt;/div&gt;&lt;div&gt;&lt;span style=&quot;background-color: initial;&quot;&gt;championId varchar(255) NOT NULL&lt;/span&gt;&lt;/div&gt;&lt;div&gt;&lt;span style=&quot;background-color: initial;&quot;&gt;teamPosition varchar(255)&lt;/span&gt;&lt;/div&gt;&lt;div&gt;&lt;span style=&quot;background-color: initial;&quot;&gt;total_cnt int(10)&lt;/span&gt;&lt;/div&gt;&lt;div&gt;&lt;span style=&quot;background-color: initial;&quot;&gt;win_cnt float(10)&lt;/span&gt;&lt;/div&gt;&lt;div&gt;&lt;span style=&quot;background-color: initial;&quot;&gt;ban_cnt float(10)&lt;/span&gt;&lt;/div&gt;&lt;div&gt;&lt;span style=&quot;background-color: initial;&quot;&gt;pick_cnt float(10)&lt;/span&gt;&lt;/div&gt;" style="align=left;strokeColor=none;fillColor=none;spacingLeft=4;fontSize=12;verticalAlign=top;resizable=0;rotatable=0;part=1;html=1;" parent="MOOeBxr5KmztlEnLFUnQ-157" vertex="1">
          <mxGeometry y="30" width="250" height="120" as="geometry" />
        </mxCell>
        <mxCell id="MOOeBxr5KmztlEnLFUnQ-161" value="chall_cham" style="swimlane;childLayout=stackLayout;horizontal=1;startSize=30;horizontalStack=0;rounded=1;fontSize=14;fontStyle=0;strokeWidth=2;resizeParent=0;resizeLast=1;shadow=0;dashed=0;align=center;arcSize=4;whiteSpace=wrap;html=1;" parent="1" vertex="1">
          <mxGeometry x="2695.87" y="1429" width="250" height="150" as="geometry" />
        </mxCell>
        <mxCell id="MOOeBxr5KmztlEnLFUnQ-162" value="&lt;div&gt;championName varchar(255) NOT NULL&lt;/div&gt;&lt;div&gt;&lt;span style=&quot;background-color: initial;&quot;&gt;championId varchar(255) NOT NULL&lt;/span&gt;&lt;/div&gt;&lt;div&gt;&lt;span style=&quot;background-color: initial;&quot;&gt;teamPosition varchar(255)&lt;/span&gt;&lt;/div&gt;&lt;div&gt;&lt;span style=&quot;background-color: initial;&quot;&gt;total_cnt int(10)&lt;/span&gt;&lt;/div&gt;&lt;div&gt;&lt;span style=&quot;background-color: initial;&quot;&gt;win_cnt float(10)&lt;/span&gt;&lt;/div&gt;&lt;div&gt;&lt;span style=&quot;background-color: initial;&quot;&gt;ban_cnt float(10)&lt;/span&gt;&lt;/div&gt;&lt;div&gt;&lt;span style=&quot;background-color: initial;&quot;&gt;pick_cnt float(10)&lt;/span&gt;&lt;/div&gt;" style="align=left;strokeColor=none;fillColor=none;spacingLeft=4;fontSize=12;verticalAlign=top;resizable=0;rotatable=0;part=1;html=1;" parent="MOOeBxr5KmztlEnLFUnQ-161" vertex="1">
          <mxGeometry y="30" width="250" height="120" as="geometry" />
        </mxCell>
        <mxCell id="MOOeBxr5KmztlEnLFUnQ-164" style="edgeStyle=orthogonalEdgeStyle;rounded=0;orthogonalLoop=1;jettySize=auto;html=1;entryX=0;entryY=0.589;entryDx=0;entryDy=0;entryPerimeter=0;strokeWidth=7;" parent="1" source="HTWprI1YvL_pcX_ykUgZ-25" target="rLJDlsq2ctv8KvqcAvXV-27" edge="1">
          <mxGeometry relative="1" as="geometry" />
        </mxCell>
      </root>
    </mxGraphModel>
  </diagram>
</mxfile>
